<svg width="24" height="24" viewBox="0 0 24 24" fill="none" xmlns="http://www.w3.org/2000/svg">
<g clip-path="url(#clip0_762_237)">
<path d="M12.0005 10.6948L2.20946 0.903741C2.03588 0.731589 1.80131 0.634995 1.55684 0.634995C1.31237 0.634995 1.07781 0.731589 0.904229 0.903741C0.818212 0.989267 0.749951 1.09095 0.703372 1.20295C0.656792 1.31495 0.632813 1.43506 0.632812 1.55636C0.632813 1.67766 0.656792 1.79776 0.703372 1.90976C0.749951 2.02176 0.818212 2.12345 0.904229 2.20897L10.6953 12L0.904229 21.7911C0.732078 21.9647 0.635483 22.1993 0.635483 22.4437C0.635483 22.6882 0.732078 22.9228 0.904229 23.0964C0.989755 23.1824 1.09144 23.2506 1.20344 23.2972C1.31544 23.3438 1.43554 23.3678 1.55684 23.3678C1.67814 23.3678 1.79825 23.3438 1.91025 23.2972C2.02225 23.2506 2.12393 23.1824 2.20946 23.0964L12.0005 13.3053L21.7916 23.0964C22.147 23.4517 22.7359 23.4564 23.0968 23.0964C23.1829 23.0108 23.2511 22.9091 23.2977 22.7971C23.3443 22.6851 23.3683 22.565 23.3683 22.4437C23.3683 22.3224 23.3443 22.2023 23.2977 22.0903C23.2511 21.9783 23.1829 21.8766 23.0968 21.7911L13.3058 12L23.0968 2.20897C23.269 2.03539 23.3656 1.80083 23.3656 1.55636C23.3656 1.31189 23.269 1.07732 23.0968 0.903741C23.0113 0.817724 22.9096 0.749463 22.7976 0.702883C22.6856 0.656304 22.5655 0.632324 22.4442 0.632324C22.3229 0.632324 22.2028 0.656304 22.0908 0.702883C21.9788 0.749463 21.8771 0.817724 21.7916 0.903741L12.0005 10.6948Z" fill="black"/>
</g>
<defs>
<clipPath id="clip0_762_237">
<rect width="24" height="24" fill="white"/>
</clipPath>
</defs>
</svg>
