<svg width="24" height="24" viewBox="0 0 24 24" fill="none" xmlns="http://www.w3.org/2000/svg">
<path d="M12 4C7.58846 4 4 7.58846 4 12C4 16.4115 7.58846 20 12 20C16.4115 20 20 16.4115 20 12C20 7.58846 16.4115 4 12 4ZM17.2904 7.68846C18.2423 8.85192 18.8192 10.3327 18.8327 11.9462C18.6077 11.8981 16.3481 11.4404 14.075 11.7269C14.0269 11.6096 13.9788 11.4923 13.9288 11.375C13.7865 11.0423 13.6346 10.7096 13.475 10.3846C16 9.35192 17.1462 7.88462 17.2904 7.68846ZM12 5.17692C13.7365 5.17692 15.3231 5.82885 16.5288 6.89808C16.4058 7.07308 15.3769 8.45577 12.9481 9.36731C11.8288 7.30962 10.5885 5.62115 10.3981 5.36731C10.9231 5.24038 11.4596 5.17692 12 5.17692V5.17692ZM9.09423 5.82692C9.275 6.07308 10.4962 7.76731 11.6269 9.77885C8.43077 10.6269 5.61538 10.6154 5.30962 10.6115C5.75385 8.49038 7.18269 6.72885 9.09423 5.82692ZM5.16731 12.0096C5.16731 11.9404 5.16923 11.8692 5.17115 11.8C5.46923 11.8058 8.78077 11.8481 12.1942 10.8269C12.3904 11.2096 12.5769 11.5981 12.7481 11.9865C12.6577 12.0115 12.5673 12.0385 12.4788 12.0673C8.95385 13.2096 7.07885 16.3154 6.92308 16.5788C5.83269 15.3673 5.16731 13.7654 5.16731 12.0096ZM12 18.8423C10.4192 18.8423 8.96346 18.3038 7.80577 17.4C7.92885 17.1481 9.31154 14.4769 13.1654 13.1327L13.2096 13.1173C14.1692 15.6096 14.5654 17.7 14.6673 18.3C13.8481 18.65 12.9462 18.8442 12 18.8423V18.8423ZM15.8173 17.675C15.7481 17.2596 15.3846 15.2596 14.4904 12.8038C16.6327 12.4615 18.5135 13.0231 18.7462 13.0962C18.4423 14.9962 17.3519 16.6385 15.8173 17.675V17.675Z" fill="black"/>
</svg>
