<svg width="20" height="20" viewBox="0 0 20 20" fill="none" xmlns="http://www.w3.org/2000/svg">
<path d="M3.12468 3.33317C2.95892 3.33317 2.79994 3.26732 2.68273 3.15011C2.56552 3.0329 2.49968 2.87393 2.49968 2.70817C2.49968 2.54241 2.56552 2.38344 2.68273 2.26623C2.79994 2.14902 2.95892 2.08317 3.12468 2.08317L16.8747 2.08317C17.0404 2.08317 17.1994 2.14902 17.3166 2.26623C17.4338 2.38344 17.4997 2.54241 17.4997 2.70817C17.4997 2.87393 17.4338 3.0329 17.3166 3.15011C17.1994 3.26732 17.0404 3.33317 16.8747 3.33317L3.12468 3.33317ZM3.95801 17.9165C2.69238 17.9165 1.66634 16.8905 1.66634 15.6248L1.66634 5.07192C1.66638 4.89257 1.72428 4.71802 1.83144 4.57421C1.9386 4.43039 2.08929 4.32499 2.26114 4.27365C2.43298 4.22231 2.6168 4.22778 2.78529 4.28925C2.95377 4.35072 3.09793 4.4649 3.19634 4.61484L6.86676 10.208C7.72467 9.78859 8.77093 9.58317 9.99968 9.58317C11.2284 9.58317 12.2747 9.78859 13.1326 10.208L16.803 4.61484C16.9014 4.4649 17.0456 4.35072 17.2141 4.28925C17.3826 4.22778 17.5664 4.22231 17.7382 4.27365C17.9101 4.32499 18.0608 4.43039 18.1679 4.57421C18.2751 4.71802 18.333 4.89257 18.333 5.07192L18.333 15.6248C18.333 16.8905 17.307 17.9165 16.0413 17.9165L3.95801 17.9165ZM3.95801 16.6665L16.0413 16.6665C16.1781 16.6665 16.3136 16.6396 16.44 16.5872C16.5664 16.5349 16.6812 16.4581 16.7779 16.3614C16.8746 16.2647 16.9514 16.1498 17.0037 16.0235C17.0561 15.8971 17.083 15.7616 17.083 15.6248L17.083 6.4665L13.8555 11.3844C13.8103 11.4533 13.7518 11.5126 13.6836 11.5589C13.6153 11.6051 13.5386 11.6374 13.4578 11.6539C13.377 11.6703 13.2937 11.6707 13.2128 11.6548C13.1319 11.6389 13.0549 11.6072 12.9863 11.5615C12.2657 11.0811 11.2738 10.8332 9.99968 10.8332C8.72551 10.8332 7.73363 11.0811 7.01301 11.5615C6.9444 11.6072 6.86743 11.6389 6.78652 11.6548C6.7056 11.6706 6.62236 11.6703 6.54156 11.6539C6.46077 11.6374 6.38404 11.6051 6.31578 11.5589C6.24752 11.5126 6.18909 11.4533 6.14384 11.3844L2.91634 6.46629L2.91634 15.6248C2.91634 15.7616 2.94328 15.8971 2.99563 16.0235C3.04798 16.1498 3.12471 16.2647 3.22144 16.3614C3.31816 16.4581 3.433 16.5349 3.55938 16.5872C3.68576 16.6396 3.82121 16.6665 3.95801 16.6665Z" fill="black"/>
</svg>
