<svg width="72" height="72" viewBox="0 0 72 72" fill="none" xmlns="http://www.w3.org/2000/svg">
<path d="M19.8359 43.4757C19.8359 43.6333 19.8669 43.7894 19.9272 43.935C19.9875 44.0806 20.0759 44.2129 20.1873 44.3244C20.2987 44.4359 20.431 44.5243 20.5766 44.5846C20.7223 44.6449 20.8783 44.676 21.0359 44.676C21.1935 44.676 21.3496 44.6449 21.4952 44.5846C21.6408 44.5243 21.7731 44.4359 21.8846 44.3244C21.996 44.2129 22.0844 44.0806 22.1447 43.935C22.205 43.7894 22.236 43.6333 22.2359 43.4757C22.236 43.3181 22.205 43.162 22.1447 43.0164C22.0844 42.8707 21.996 42.7384 21.8846 42.627C21.7731 42.5155 21.6408 42.4271 21.4952 42.3668C21.3496 42.3064 21.1935 42.2754 21.0359 42.2754C20.8783 42.2754 20.7223 42.3064 20.5766 42.3668C20.431 42.4271 20.2987 42.5155 20.1873 42.627C20.0759 42.7384 19.9875 42.8707 19.9272 43.0164C19.8669 43.162 19.8359 43.3181 19.8359 43.4757Z" fill="#00D5AE"/>
<path d="M16.3799 48.0118C16.3798 48.1694 16.4109 48.3255 16.4711 48.4711C16.5314 48.6167 16.6198 48.7491 16.7313 48.8605C16.8427 48.972 16.975 49.0604 17.1206 49.1207C17.2662 49.1811 17.4223 49.2121 17.5799 49.2121C17.7375 49.2121 17.8936 49.1811 18.0392 49.1207C18.1848 49.0604 18.3171 48.972 18.4285 48.8605C18.5399 48.7491 18.6283 48.6167 18.6886 48.4711C18.7489 48.3255 18.7799 48.1694 18.7799 48.0118C18.7799 47.8542 18.7489 47.6981 18.6886 47.5525C18.6283 47.4069 18.5399 47.2746 18.4285 47.1631C18.3171 47.0516 18.1848 46.9632 18.0392 46.9029C17.8936 46.8426 17.7375 46.8115 17.5799 46.8115C17.4223 46.8115 17.2662 46.8426 17.1206 46.9029C16.975 46.9632 16.8427 47.0516 16.7313 47.1631C16.6198 47.2746 16.5314 47.4069 16.4711 47.5525C16.4109 47.6981 16.3798 47.8542 16.3799 48.0118Z" fill="#00D5AE"/>
<path d="M22.2725 46.8123C22.2725 47.1306 22.3989 47.4358 22.6239 47.6608C22.849 47.8859 23.1542 48.0123 23.4725 48.0123C23.7907 48.0123 24.0959 47.8859 24.321 47.6608C24.546 47.4358 24.6725 47.1306 24.6725 46.8123C24.6725 46.494 24.546 46.1888 24.321 45.9638C24.0959 45.7387 23.7907 45.6123 23.4725 45.6123C23.1542 45.6123 22.849 45.7387 22.6239 45.9638C22.3989 46.1888 22.2725 46.494 22.2725 46.8123Z" fill="#00D5AE"/>
<path d="M9.59971 62.7955H7.19971C6.8815 62.7956 6.57635 62.9221 6.35137 63.1471C6.12639 63.3721 6 63.6773 6 63.9955C6 64.3137 6.12639 64.6189 6.35137 64.844C6.57635 65.069 6.8815 65.1955 7.19971 65.1955H9.59971C9.91792 65.1955 10.2231 65.069 10.448 64.844C10.673 64.6189 10.7994 64.3137 10.7994 63.9955C10.7994 63.6773 10.673 63.3721 10.448 63.1471C10.2231 62.9221 9.91792 62.7956 9.59971 62.7955ZM64.7997 62.7955H63.1557C64.2343 61.8709 65.1004 60.7242 65.6948 59.4339C66.2892 58.1436 66.5979 56.7402 66.5997 55.3195C66.5997 55.0013 66.4733 54.696 66.2482 54.471C66.0232 54.246 65.718 54.1195 65.3997 54.1195H52.7037V37.5955C52.7043 35.3197 52.0321 33.0945 50.7717 31.1995C49.7548 29.7014 49.2075 27.9342 49.1997 26.1235V21.6835C49.9392 21.5092 50.5981 21.0902 51.0697 20.4945C51.5413 19.8988 51.7978 19.1613 51.7978 18.4015C51.7978 17.6418 51.5413 16.9043 51.0697 16.3086C50.5981 15.7129 49.9392 15.2939 49.1997 15.1195V12.7195C49.1997 12.4013 49.0733 12.096 48.8482 11.871C48.6232 11.646 48.318 11.5195 47.9997 11.5195H39.3477C39.0295 11.5195 38.7242 11.646 38.4992 11.871C38.2741 12.096 38.1477 12.4013 38.1477 12.7195V15.1195C37.4082 15.2939 36.7493 15.7129 36.2777 16.3086C35.8061 16.9043 35.5496 17.6418 35.5496 18.4015C35.5496 19.1613 35.8061 19.8988 36.2777 20.4945C36.7493 21.0902 37.4082 21.5092 38.1477 21.6835V26.2195C38.1402 27.995 37.6056 29.7283 36.6117 31.1995C35.3573 33.0698 34.6889 35.2715 34.6917 37.5235V62.7955H25.3797C25.1468 61.7332 24.6135 60.7601 23.8434 59.9921C23.0733 59.2241 22.0987 58.6935 21.0357 58.4635V53.6635C23.2261 53.3612 25.2183 52.2341 26.6056 50.5123C27.9928 48.7905 28.6703 46.604 28.4997 44.3995L27.5997 33.0115C27.5755 32.7102 27.4385 32.4291 27.216 32.2244C26.9935 32.0197 26.702 31.9066 26.3997 31.9075H13.2957C12.9934 31.9066 12.7019 32.0197 12.4794 32.2244C12.2569 32.4291 12.1199 32.7102 12.0957 33.0115L11.1837 44.3995C11.0005 46.6074 11.6712 48.8015 13.0577 50.5295C14.4441 52.2575 16.4406 53.3878 18.6357 53.6875V58.4875C17.5702 58.7207 16.5942 59.2553 15.824 60.0276C15.0538 60.7999 14.5219 61.7774 14.2917 62.8435C13.9735 62.8578 13.6739 62.998 13.459 63.2332C13.2441 63.4684 13.1314 63.7793 13.1457 64.0975C13.16 64.4158 13.3002 64.7153 13.5354 64.9302C13.7705 65.1452 14.0815 65.2579 14.3997 65.2435H64.7997C65.118 65.2435 65.4232 65.1171 65.6482 64.8921C65.8733 64.667 65.9997 64.3618 65.9997 64.0435C65.9997 63.7253 65.8733 63.42 65.6482 63.195C65.4232 62.97 65.118 62.8435 64.7997 62.8435V62.7955ZM25.2837 34.3075L25.6437 38.8555H14.0277L14.3997 34.3075H25.2837ZM15.2157 49.3555C14.6202 48.7156 14.166 47.9575 13.8828 47.1305C13.5995 46.3035 13.4935 45.4262 13.5717 44.5555L13.8357 41.2195H25.8357L26.0997 44.5555C26.2108 45.8612 25.9112 47.1689 25.2428 48.296C24.5744 49.423 23.5706 50.3131 22.3717 50.8419C21.1727 51.3706 19.8385 51.5116 18.5556 51.2451C17.2726 50.9787 16.1049 50.318 15.2157 49.3555ZM16.7997 62.7955C17.0402 62.1864 17.4583 61.6637 17.9997 61.2954C18.5411 60.927 19.1809 60.73 19.8357 60.73C20.4906 60.73 21.1303 60.927 21.6717 61.2954C22.2131 61.6637 22.6313 62.1864 22.8717 62.7955H16.7997ZM40.5477 13.8835H46.7997V15.0235H40.5477V13.8835ZM37.0797 42.6835C37.6104 42.7707 38.0928 43.0436 38.4409 43.4535C38.789 43.8635 38.98 44.3838 38.98 44.9215C38.98 45.4593 38.789 45.9796 38.4409 46.3895C38.0928 46.7994 37.6104 47.0724 37.0797 47.1595V42.6835ZM37.0797 53.9395H39.3597C39.678 53.9395 39.9832 53.8131 40.2082 53.5881C40.4333 53.363 40.5597 53.0578 40.5597 52.7395C40.5597 52.4213 40.4333 52.116 40.2082 51.891C39.9832 51.666 39.678 51.5395 39.3597 51.5395H37.0797V49.5595C38.269 49.499 39.3896 48.984 40.2099 48.1208C41.0303 47.2576 41.4877 46.1123 41.4877 44.9215C41.4877 43.7307 41.0303 42.5854 40.2099 41.7222C39.3896 40.8591 38.269 40.344 37.0797 40.2835V38.7955H42.9597C43.0658 38.7987 43.1665 38.843 43.2405 38.9192C43.3144 38.9954 43.3558 39.0974 43.3557 39.2035V55.1035C43.3558 55.2097 43.3144 55.3117 43.2405 55.3879C43.1665 55.464 43.0658 55.5084 42.9597 55.5115H37.0677L37.0797 53.9395ZM37.0797 62.7355V57.9115H42.9597C43.7024 57.9084 44.4135 57.6111 44.9375 57.0849C45.4615 56.5586 45.7557 55.8462 45.7557 55.1035V39.2035C45.7557 38.4609 45.4615 37.7485 44.9375 37.2222C44.4135 36.6959 43.7024 36.3987 42.9597 36.3955H37.1997C37.3649 35.0131 37.8542 33.6892 38.6277 32.5315C39.871 30.6649 40.5386 28.4743 40.5477 26.2315V20.5795C40.5486 20.4216 40.5184 20.265 40.4586 20.1188C40.3989 19.9726 40.3109 19.8397 40.1997 19.7275C40.0886 19.6141 39.956 19.5239 39.8098 19.4621C39.6635 19.4004 39.5065 19.3682 39.3477 19.3675H38.9157C38.6579 19.3675 38.4107 19.2651 38.2284 19.0828C38.0461 18.9006 37.9437 18.6533 37.9437 18.3955C37.9437 18.1377 38.0461 17.8905 38.2284 17.7082C38.4107 17.5259 38.6579 17.4235 38.9157 17.4235H48.5157C48.7735 17.4235 49.0207 17.5259 49.203 17.7082C49.3853 17.8905 49.4877 18.1377 49.4877 18.3955C49.4877 18.6533 49.3853 18.9006 49.203 19.0828C49.0207 19.2651 48.7735 19.3675 48.5157 19.3675H43.7157C43.3975 19.3676 43.0924 19.4941 42.8674 19.7191C42.6424 19.9441 42.516 20.2493 42.516 20.5675C42.516 20.8857 42.6424 21.1909 42.8674 21.416C43.0924 21.641 43.3975 21.7675 43.7157 21.7675H46.7997V26.1235C46.7932 28.404 47.4658 30.6347 48.7317 32.5315C49.7369 34.0287 50.2718 35.7922 50.2677 37.5955V54.1195H47.9997C47.6815 54.1195 47.3762 54.246 47.1512 54.471C46.9261 54.696 46.7997 55.0013 46.7997 55.3195C46.7984 56.7407 47.1056 58.1452 47.7002 59.436C48.2949 60.7267 49.1627 61.873 50.2437 62.7955L37.0797 62.7355ZM56.7237 62.7355C54.9488 62.7358 53.2317 62.1045 51.8796 60.9546C50.5275 59.8048 49.6286 58.2114 49.3437 56.4595H64.1037C63.8268 58.2224 62.9304 59.8287 61.5755 60.99C60.2207 62.1513 58.4961 62.7915 56.7117 62.7955L56.7237 62.7355Z" fill="#00D5AE"/>
</svg>
