<svg width="72" height="72" viewBox="0 0 72 72" fill="none" xmlns="http://www.w3.org/2000/svg">
<path d="M49.8244 15.142L53.1874 14.8721L53.1955 15.0246C53.2333 15.9315 53.1334 17.2135 52.7934 18.8141C52.2832 21.2163 51.3237 23.8223 49.8149 26.574C45.6961 34.0869 38.1818 41.4986 26.4948 48.3664C23.5537 50.0871 20.5406 51.6815 17.4636 53.1452L16.2396 53.7228L14.8145 50.6647C18.2191 49.0878 21.5467 47.3499 24.7862 45.4568C35.9686 38.8859 43.0429 31.9074 46.8567 24.9518C48.2062 22.4916 49.0511 20.196 49.4937 18.1123C49.7461 16.9274 49.8338 15.9976 49.8297 15.3633L49.8244 15.142Z" fill="#FF9B26"/>
<path d="M45.5953 30.6996C50.729 36.6646 54.1515 43.8509 55.4646 52.3382L55.586 53.1641L52.2419 53.623C51.1541 45.6971 48.1257 39.0209 43.5062 33.454L43.038 32.9007L45.5953 30.701V30.6996ZM36.8489 24.3945C38.2928 25.3455 39.6874 26.3693 41.0271 27.4621L41.8139 28.1193L39.6223 30.6834C38.4009 29.6424 37.1261 28.6658 35.803 27.7576L34.9906 27.211L36.8489 24.3945ZM15.1361 17.8479L15.9175 14.5645L16.151 14.6238C16.4222 14.694 16.8055 14.802 17.29 14.9491C18.4856 15.3167 19.6668 15.7295 20.8312 16.1866C24.4445 17.5985 27.9128 19.3566 31.1876 21.4363L32.05 21.995L30.1916 24.8115C26.864 22.6182 23.315 20.7808 19.6031 19.3297C18.5186 18.904 17.4184 18.5196 16.3048 18.1772L15.5761 17.964L15.1348 17.8465L15.1361 17.8479Z" fill="#FF9B26"/>
<path d="M35.648 10.8554L38.7655 9.5625L38.8869 9.87964C39.0394 10.298 39.223 10.8864 39.4011 11.6219C40.501 16.1334 40.2743 21.039 37.8073 25.7058L37.5347 26.2051C37.4416 26.3697 37.3458 26.533 37.2027 26.7665C36.501 27.8043 35.1919 29.282 33.2701 30.7517C27.1567 35.4279 19.3941 36.3982 10.3819 31.4278L9.89062 31.1512L11.5668 28.2227C19.5493 32.7949 26.0258 32.0446 31.2202 28.0715C32.0978 27.4018 32.909 26.6494 33.6426 25.8245L33.9125 25.5141C34.1554 25.2253 34.3106 25.0202 34.3606 24.95L34.5967 24.5451C36.8397 20.5775 37.0759 16.3305 36.1231 12.4208L36.0016 11.9431C35.9224 11.6482 35.8319 11.3565 35.7304 11.0686L35.648 10.8554ZM48.4795 36.4454C52.4593 33.7841 56.6686 33.2713 60.4257 33.9852L60.8656 34.077C61.1355 34.1364 61.3582 34.1957 61.5269 34.247L61.6443 34.2848L60.5782 37.4859L60.4135 37.4373C60.2087 37.3842 60.0021 37.3383 59.7941 37.2997C56.8359 36.7369 53.5052 37.1432 50.3554 39.2498C49.4512 39.8544 48.5875 40.5899 47.7629 41.4711L47.3526 41.9232C47.231 42.0705 47.1166 42.2236 47.0099 42.3821C46.6743 42.8701 46.3765 43.3831 46.1192 43.9165C44.3243 47.6102 44.1529 51.9773 46.686 56.9221L46.9316 57.3877L43.9666 58.9977C40.6265 52.8438 40.7817 47.1797 43.0854 42.4415C43.7143 41.1486 44.3553 40.2228 44.8169 39.6992C45.8888 38.4581 47.1204 37.3645 48.4795 36.4468V36.4454Z" fill="#FF9B26"/>
<path d="M35.9143 8.52148C20.4188 8.52148 7.84375 20.8158 7.84375 35.9996C7.84375 51.1819 20.4215 63.4763 35.9156 63.4763C51.4219 63.4763 63.9997 51.1846 63.9997 35.9996C63.9983 20.8131 51.4206 8.52148 35.9143 8.52148ZM35.9143 11.8953C49.573 11.8953 60.6245 22.6944 60.6245 36.0009C60.6245 49.3047 49.573 60.1038 35.9143 60.1038C22.2663 60.1038 11.2163 49.3034 11.2163 36.0009C11.2163 22.6944 22.265 11.8953 35.9143 11.8953Z" fill="#FF9B26"/>
</svg>
