<svg width="40" height="40" viewBox="0 0 40 40" fill="none" xmlns="http://www.w3.org/2000/svg">
<path d="M9.61992 18.6666C9.70617 18.6513 9.78856 18.6192 9.86239 18.572C9.93622 18.5249 10 18.4637 10.0502 18.3918C10.1003 18.32 10.1358 18.239 10.1547 18.1535C10.1735 18.0679 10.1753 17.9795 10.1599 17.8933L9.99992 17.0733C9.9846 16.9857 9.95218 16.9021 9.90453 16.827C9.85687 16.752 9.7949 16.6871 9.72216 16.636C9.64942 16.585 9.56734 16.5487 9.48059 16.5294C9.39384 16.51 9.30413 16.508 9.21659 16.5233C9.12904 16.5386 9.04536 16.571 8.97034 16.6187C8.89532 16.6663 8.83042 16.7283 8.77935 16.801C8.72828 16.8738 8.69203 16.9559 8.67269 17.0426C8.65334 17.1294 8.65126 17.2191 8.66659 17.3066L8.81325 18.1333C8.82902 18.2224 8.86276 18.3073 8.9124 18.3829C8.96205 18.4586 9.02657 18.5233 9.10204 18.5732C9.17751 18.6231 9.26234 18.6571 9.35137 18.6732C9.44041 18.6892 9.53178 18.687 9.61992 18.6666ZM7.41992 20.7733L8.25325 20.6266C8.34927 20.6227 8.44329 20.598 8.52888 20.5543C8.61448 20.5106 8.68961 20.4489 8.74914 20.3735C8.80867 20.2981 8.85119 20.2107 8.87378 20.1173C8.89638 20.0238 8.89851 19.9267 8.88004 19.8324C8.86157 19.7381 8.82293 19.6489 8.76676 19.5709C8.7106 19.4929 8.63825 19.428 8.55465 19.3806C8.47106 19.3332 8.37821 19.3044 8.28246 19.2963C8.18671 19.2881 8.09033 19.3007 7.99992 19.3333L7.17325 19.4799C6.99644 19.51 6.83881 19.6091 6.73504 19.7553C6.63127 19.9016 6.58986 20.0831 6.61992 20.2599C6.64998 20.4368 6.74904 20.5944 6.89532 20.6982C7.0416 20.8019 7.22311 20.8433 7.39992 20.8133L7.41992 20.7733ZM9.43325 21.4533L9.57992 22.2799C9.61085 22.4528 9.70872 22.6064 9.85226 22.7075C9.9958 22.8086 10.1734 22.849 10.3466 22.8199C10.5206 22.7906 10.6759 22.6933 10.7784 22.5496C10.8809 22.4059 10.9222 22.2274 10.8933 22.0533L10.7466 21.2199C10.7186 21.0487 10.625 20.8951 10.4856 20.7917C10.3461 20.6884 10.1719 20.6435 9.99992 20.6666C9.90994 20.6786 9.82336 20.7088 9.74548 20.7555C9.66759 20.8021 9.60006 20.8641 9.547 20.9378C9.49394 21.0114 9.45649 21.0952 9.43693 21.1838C9.41737 21.2724 9.41612 21.3641 9.43325 21.4533ZM11.5733 20.0399L12.3999 19.8933C12.4875 19.878 12.5711 19.8455 12.6462 19.7979C12.7212 19.7502 12.7861 19.6883 12.8372 19.6155C12.8882 19.5428 12.9245 19.4607 12.9438 19.3739C12.9632 19.2872 12.9652 19.1975 12.9499 19.1099C12.9346 19.0224 12.9022 18.9387 12.8545 18.8637C12.8069 18.7887 12.7449 18.7238 12.6722 18.6727C12.5994 18.6216 12.5173 18.5854 12.4306 18.566C12.3438 18.5467 12.2541 18.5446 12.1666 18.5599L11.3333 18.7266C11.1564 18.7576 10.9992 18.8575 10.896 19.0044C10.7929 19.1513 10.7523 19.3331 10.7833 19.5099C10.8142 19.6868 10.9141 19.844 11.061 19.9472C11.2079 20.0503 11.3898 20.0909 11.5666 20.0599L11.5733 20.0399ZM23.3866 16.6066L22.5599 16.7533C22.4725 16.7663 22.3886 16.7965 22.313 16.8422C22.2374 16.8879 22.1717 16.9481 22.1196 17.0195C22.0675 17.0908 22.03 17.1718 22.0095 17.2577C21.989 17.3436 21.9857 17.4328 21.9999 17.5199C22.0144 17.6068 22.046 17.6899 22.0928 17.7645C22.1396 17.8391 22.2007 17.9036 22.2726 17.9545C22.3445 18.0053 22.4258 18.0414 22.5117 18.0606C22.5977 18.0799 22.6865 18.0819 22.7733 18.0666L23.6066 17.9199C23.6928 17.9047 23.7752 17.8725 23.8491 17.8254C23.9229 17.7782 23.9867 17.717 24.0368 17.6452C24.087 17.5734 24.1225 17.4924 24.1413 17.4068C24.1602 17.3213 24.1619 17.2329 24.1466 17.1466C24.1156 16.9751 24.0187 16.8226 23.8767 16.7217C23.7346 16.6207 23.5587 16.5794 23.3866 16.6066ZM25.3333 17.9999C25.1604 18.0309 25.0068 18.1287 24.9057 18.2723C24.8046 18.4158 24.7642 18.5935 24.7933 18.7666L24.9399 19.5999C24.9709 19.7728 25.0687 19.9264 25.2123 20.0275C25.3558 20.1286 25.5334 20.169 25.7066 20.1399C25.7975 20.1266 25.8846 20.0946 25.9625 20.046C26.0404 19.9974 26.1075 19.9332 26.1594 19.8575C26.2114 19.7817 26.2471 19.6961 26.2644 19.6059C26.2817 19.5157 26.2802 19.4229 26.2599 19.3333L26.1133 18.5066C26.0749 18.3372 25.9719 18.1894 25.8262 18.0948C25.6805 18.0001 25.5037 17.9661 25.3333 17.9999ZM32.2666 12.7999C32.1083 12.7214 31.9253 12.7088 31.7578 12.7651C31.5903 12.8213 31.452 12.9418 31.3733 13.0999C31.1734 13.4928 30.8494 13.8085 30.4515 13.9982C30.0537 14.1879 29.6044 14.2409 29.1733 14.1489C28.7423 14.0569 28.3537 13.8251 28.068 13.4896C27.7823 13.154 27.6154 12.7335 27.5933 12.2933C27.5933 12.1165 27.523 11.9469 27.398 11.8219C27.273 11.6969 27.1034 11.6266 26.9266 11.6266C26.7498 11.6266 26.5802 11.6969 26.4552 11.8219C26.3302 11.9469 26.2599 12.1165 26.2599 12.2933C26.2964 13.0283 26.5752 13.7307 27.0527 14.2907C27.5302 14.8507 28.1796 15.237 28.8997 15.3892C29.6197 15.5414 30.3699 15.4511 31.0332 15.1322C31.6965 14.8134 32.2357 14.284 32.5666 13.6266C32.6254 13.4759 32.6274 13.3089 32.5722 13.1568C32.517 13.0047 32.4084 12.8779 32.2666 12.7999ZM27.3333 10.3666C27.4462 10.3922 27.5631 10.3952 27.6772 10.3756C27.7913 10.3559 27.9005 10.3139 27.9983 10.2519C28.0962 10.19 28.1808 10.1094 28.2475 10.0146C28.3141 9.91992 28.3614 9.81298 28.3866 9.69995C28.4366 9.47114 28.3948 9.23184 28.2701 9.03359C28.1454 8.83533 27.9478 8.69397 27.7199 8.63995C27.4885 8.59446 27.2485 8.64163 27.0515 8.77129C26.8545 8.90095 26.7163 9.10275 26.6666 9.33328C26.6242 9.55813 26.6698 9.79065 26.7938 9.98291C26.9179 10.1752 27.1109 10.3125 27.3333 10.3666ZM32.7533 9.69995C32.582 9.66038 32.4028 9.67264 32.2384 9.73515C32.0741 9.79766 31.9321 9.90761 31.8304 10.051C31.7287 10.1944 31.672 10.3649 31.6674 10.5406C31.6627 10.7163 31.7105 10.8895 31.8045 11.0381C31.8985 11.1866 32.0346 11.3039 32.1954 11.3749C32.3562 11.446 32.5345 11.4676 32.7077 11.4371C32.8808 11.4065 33.0409 11.3252 33.1678 11.2035C33.2946 11.0817 33.3824 10.925 33.4199 10.7533C33.468 10.5255 33.4252 10.2879 33.3007 10.0911C33.1762 9.89436 32.9797 9.75401 32.7533 9.69995Z" fill="#5454D0"/>
<path d="M36.4663 12.9864C36.8462 11.2582 36.5463 9.45016 35.6289 7.93716C34.7115 6.42415 33.2469 5.32231 31.539 4.86016C29.831 4.39801 28.0106 4.611 26.4554 5.45497C24.9003 6.29894 23.7296 7.70912 23.1863 9.39305C22.5512 9.58816 21.9601 9.90518 21.4463 10.3264C21.239 10.4995 21.069 10.7128 20.9464 10.9534C20.8238 11.194 20.7512 11.457 20.733 11.7264L20.6063 13.5197L20.4863 13.6931L18.573 14.033C19.573 12.6197 20.7063 10.3997 19.853 8.31972C18.593 5.27305 13.9996 5.33305 12.6263 5.43972C11.534 5.49689 10.4569 5.72174 9.43295 6.10638C8.23295 6.57972 7.37962 6.64638 6.66629 6.31305C6.47362 6.21527 6.31037 6.06808 6.19324 5.88652C6.0761 5.70497 6.00929 5.49556 5.99962 5.27972C5.99262 5.19217 5.96844 5.10686 5.92846 5.02865C5.88849 4.95045 5.8335 4.88089 5.76665 4.82393C5.69979 4.76698 5.62237 4.72375 5.5388 4.69672C5.45524 4.66969 5.36717 4.65938 5.27962 4.66638C5.19207 4.67339 5.10676 4.69757 5.02856 4.73754C4.95035 4.77751 4.88079 4.8325 4.82384 4.89936C4.76688 4.96622 4.72366 5.04364 4.69662 5.1272C4.66959 5.21076 4.65928 5.29883 4.66629 5.38638C4.69002 5.84432 4.83696 6.28735 5.09159 6.66871C5.34622 7.05007 5.69909 7.3556 6.11295 7.55305C6.72852 7.78409 7.38471 7.88728 8.04149 7.85633C8.69826 7.82539 9.34184 7.66095 9.93295 7.37305C10.8273 7.02923 11.7697 6.8268 12.7263 6.77305C15.1063 6.60638 17.893 7.05972 18.6263 8.82638C19.5263 11.0197 17.173 13.7397 16.5663 14.3864L13.073 14.9997L12.8996 14.873L12.1663 13.2331C12.0587 12.986 11.9014 12.7637 11.7041 12.5802C11.5068 12.3967 11.2738 12.2558 11.0196 12.1664C10.1904 11.8841 9.30323 11.8161 8.44068 11.9688C7.57812 12.1215 6.76821 12.4899 6.08629 13.0397C5.87981 13.2121 5.71021 13.4243 5.58765 13.6637C5.46508 13.9031 5.39206 14.1648 5.37295 14.4331L5.24629 16.2264C4.4899 17.2188 4.08004 18.4319 4.07962 19.6797V20.3197L3.41295 30.6197C3.33724 31.7116 3.66873 32.7928 4.34342 33.6546C5.0181 34.5165 5.98815 35.0978 7.06629 35.2864C8.14028 35.4747 9.246 35.2606 10.1721 34.685C11.0982 34.1094 11.7797 33.2128 12.0863 32.1664L13.573 27.0997C13.6307 27.103 13.6886 27.103 13.7463 27.0997C14.5015 27.0854 15.223 26.7849 15.7651 26.2589C16.3071 25.733 16.6292 25.0208 16.6663 24.2664L20.2063 23.6464C20.437 24.1857 20.8208 24.6456 21.3102 24.969C21.7995 25.2925 22.373 25.4654 22.9596 25.4664C23.3659 25.4677 23.7679 25.3837 24.1396 25.2197L27.2663 29.4664C27.9149 30.3397 28.8619 30.944 29.9271 31.1644C30.9924 31.3848 32.1015 31.2059 33.0433 30.6617C33.9852 30.1175 34.6941 29.2459 35.0352 28.213C35.3762 27.1801 35.3256 26.0578 34.893 25.0597L31.8663 18.093C33.0128 17.7186 34.0409 17.05 34.8481 16.1539C35.6553 15.2578 36.2133 14.1656 36.4663 12.9864ZM22.0663 11.8197C22.0718 11.7319 22.0947 11.646 22.1336 11.567C22.1725 11.4881 22.2267 11.4176 22.293 11.3597C22.4702 11.2133 22.6624 11.086 22.8663 10.9797C22.853 11.2373 22.853 11.4954 22.8663 11.753C22.5856 11.877 22.3158 12.0242 22.0596 12.193L22.0663 11.8197ZM19.733 15.153C19.4291 16.0586 19.3596 17.0263 19.531 17.9659C19.7023 18.9056 20.109 19.7864 20.713 20.5264C20.2783 21.0309 20.0269 21.6676 19.9996 22.333L16.4596 22.953C16.2048 22.3555 15.7626 21.8571 15.1996 21.5331C15.5137 20.629 15.5935 19.6601 15.4314 18.7169C15.2694 17.7737 14.8708 16.887 14.273 16.1397L19.733 15.153ZM6.69962 14.4864C6.70517 14.3985 6.72805 14.3127 6.76695 14.2337C6.80586 14.1548 6.86001 14.0843 6.92629 14.0264C7.42785 13.6154 8.02563 13.3386 8.6635 13.222C9.30137 13.1054 9.95842 13.1528 10.573 13.3597C10.6555 13.391 10.731 13.4383 10.795 13.499C10.8591 13.5596 10.9105 13.6324 10.9463 13.713L11.093 14.0464C10.3368 13.8711 9.55244 13.8559 8.7901 14.0017C8.02777 14.1475 7.30434 14.4511 6.66629 14.893L6.69962 14.4864ZM9.79295 15.2464C10.957 15.2481 12.0727 15.7118 12.8952 16.5355C13.7177 17.3592 14.1796 18.4757 14.1796 19.6397C14.179 20.1422 14.0911 20.6407 13.9196 21.113C13.8552 21.1098 13.7907 21.1098 13.7263 21.113C12.9652 21.1154 12.2338 21.4088 11.6822 21.9331C11.1306 22.4575 10.8005 23.1731 10.7596 23.9331C10.4424 24.0052 10.1183 24.0431 9.79295 24.0464C8.65826 24.0022 7.58476 23.5203 6.79759 22.7018C6.01042 21.8834 5.57073 20.7919 5.57073 19.6564C5.57073 18.5208 6.01042 17.4294 6.79759 16.6109C7.58476 15.7925 8.65826 15.3106 9.79295 15.2664V15.2464ZM10.7863 31.7331C10.5762 32.4684 10.1011 33.0998 9.45281 33.5054C8.80451 33.911 8.02894 34.0621 7.27578 33.9296C6.52262 33.797 5.84527 33.3902 5.37444 32.7875C4.90362 32.1849 4.67272 31.4292 4.72629 30.6664L5.21295 23.0464C5.7424 23.7631 6.43253 24.3458 7.22793 24.7475C8.02333 25.1493 8.90185 25.359 9.79295 25.3597C10.192 25.356 10.5897 25.3113 10.9796 25.2264C11.2389 25.8366 11.6939 26.3433 12.273 26.6664L10.7863 31.7331ZM13.7263 25.733C13.3993 25.733 13.0796 25.6361 12.8077 25.4544C12.5359 25.2727 12.3239 25.0145 12.1988 24.7124C12.0737 24.4103 12.0409 24.0779 12.1047 23.7572C12.1685 23.4365 12.326 23.1419 12.5572 22.9106C12.7884 22.6794 13.083 22.5219 13.4037 22.4581C13.7245 22.3944 14.0569 22.4271 14.359 22.5522C14.6611 22.6774 14.9193 22.8893 15.101 23.1612C15.2827 23.4331 15.3796 23.7527 15.3796 24.0797C15.3841 24.2996 15.3446 24.5182 15.2635 24.7227C15.1824 24.9271 15.0613 25.1133 14.9073 25.2704C14.7533 25.4275 14.5696 25.5523 14.3668 25.6374C14.164 25.7226 13.9462 25.7664 13.7263 25.7664V25.733ZM22.9863 24.133C22.5489 24.1331 22.1294 23.9598 21.8196 23.6512C21.5097 23.3425 21.3347 22.9237 21.333 22.4864C21.3313 22.1265 21.4511 21.7765 21.673 21.493C22.5225 22.1539 23.5418 22.5607 24.613 22.6664C24.5702 23.0683 24.3806 23.4404 24.0803 23.7111C23.7801 23.9818 23.3905 24.132 22.9863 24.133ZM20.773 16.9664C20.7748 16.1859 20.9845 15.4199 21.3805 14.7474C21.7766 14.0748 22.3446 13.5199 23.0263 13.1397C23.3267 14.409 23.981 15.5669 24.9133 16.4791C25.8455 17.3913 27.0175 18.0203 28.293 18.293C28.6228 18.3604 28.957 18.4049 29.293 18.4264C28.9469 19.4001 28.2681 20.2204 27.3764 20.7426C26.4847 21.2648 25.4372 21.4554 24.4187 21.2809C23.4002 21.1064 22.476 20.5779 21.809 19.7885C21.142 18.9992 20.7751 17.9998 20.773 16.9664ZM33.6996 25.5931C34.0016 26.2909 34.0365 27.0754 33.7978 27.7974C33.5591 28.5193 33.0633 29.1283 32.4048 29.5086C31.7464 29.8889 30.9711 30.0139 30.2265 29.8598C29.4818 29.7057 28.8198 29.2834 28.3663 28.673L25.233 24.4197C25.6591 23.9303 25.9121 23.3141 25.953 22.6664C27.0311 22.5137 28.0432 22.0561 28.87 21.3474C29.6968 20.6387 30.3038 19.7085 30.6196 18.6664L33.6996 25.5931ZM28.573 16.993C27.4966 16.7657 26.5118 16.2241 25.7433 15.4369C24.9748 14.6496 24.4572 13.6521 24.2559 12.5706C24.0545 11.489 24.1786 10.372 24.6123 9.36098C25.0461 8.34996 25.77 7.49033 26.6925 6.89089C27.615 6.29146 28.6946 5.97917 29.7946 5.99355C30.8947 6.00792 31.9657 6.34832 32.8722 6.97165C33.7788 7.59499 34.48 8.47324 34.8871 9.49526C35.2943 10.5173 35.3891 11.6371 35.1596 12.713C34.8524 14.1533 33.9863 15.4128 32.7514 16.2152C31.5166 17.0177 30.0138 17.2974 28.573 16.993Z" fill="#5454D0"/>
</svg>
