<svg width="72" height="72" viewBox="0 0 72 72" fill="none" xmlns="http://www.w3.org/2000/svg">
<path d="M39.2399 60.1915C38.1651 60.3256 37.0831 60.3937 35.9999 60.3955C31.1525 60.3921 26.4159 58.9454 22.3937 56.2398C18.3716 53.5341 15.2463 49.6922 13.4159 45.2035H27.4559C29.774 47.369 32.8278 48.5735 35.9999 48.5735C39.1721 48.5735 42.2259 47.369 44.5439 45.2035H48.8999C49.2182 45.2035 49.5233 45.077 49.7483 44.852C49.9733 44.6269 50.0997 44.3218 50.0997 44.0035C50.0997 43.6853 49.9733 43.3802 49.7483 43.1551C49.5233 42.9301 49.2182 42.8036 48.8999 42.8035H46.4999C47.8374 40.785 48.5587 38.4209 48.5759 35.9995C48.5707 35.3278 48.5105 34.6575 48.3959 33.9955H54.7079C55.0262 33.9955 55.3314 33.8691 55.5565 33.6441C55.7815 33.419 55.9079 33.1138 55.9079 32.7955C55.9079 32.4773 55.7815 32.1721 55.5565 31.947C55.3314 31.722 55.0262 31.5955 54.7079 31.5955H47.7599C47.445 30.7558 47.0428 29.9514 46.5599 29.1955H59.4119C60.0648 31.4046 60.3962 33.6961 60.3959 35.9995C60.3962 37.273 60.2999 38.5446 60.1079 39.8035C60.0823 39.9596 60.0877 40.1192 60.1239 40.2732C60.1601 40.4271 60.2264 40.5724 60.319 40.7007C60.4115 40.8289 60.5285 40.9376 60.6633 41.0205C60.798 41.1033 60.9477 41.1588 61.1039 41.1835C61.26 41.2074 61.4192 41.2002 61.5725 41.1624C61.7257 41.1247 61.87 41.057 61.9971 40.9634C62.1242 40.8697 62.2315 40.752 62.313 40.6168C62.3945 40.4816 62.4485 40.3316 62.4719 40.1755C63.3323 34.6298 62.425 28.9539 59.8785 23.9527C57.332 18.9515 53.2757 14.879 48.2848 12.3126C43.2939 9.74612 37.6216 8.81606 32.0725 9.65427C26.5233 10.4925 21.3788 13.0564 17.3686 16.9825C13.3584 20.9086 10.6859 25.9975 9.73021 31.5276C8.77451 37.0578 9.58407 42.7485 12.0441 47.7927C14.5041 52.837 18.4897 56.9787 23.4358 59.6307C28.3818 62.2826 34.0372 63.3101 39.5999 62.5675C39.9182 62.5262 40.207 62.3601 40.4028 62.1058C40.5986 61.8515 40.6853 61.5298 40.6439 61.2115C40.6026 60.8933 40.4365 60.6045 40.1822 60.4087C39.9279 60.2129 39.6062 60.1262 39.2879 60.1675L39.2399 60.1915ZM11.6039 35.9995C11.6037 33.6961 11.9351 31.4046 12.5879 29.1955H25.4399C24.9571 29.9514 24.5549 30.7558 24.2399 31.5955H20.5799C20.2617 31.5955 19.9565 31.722 19.7314 31.947C19.5064 32.1721 19.3799 32.4773 19.3799 32.7955C19.3799 33.1138 19.5064 33.419 19.7314 33.6441C19.9565 33.8691 20.2617 33.9955 20.5799 33.9955H23.6039C23.4894 34.6575 23.4292 35.3278 23.4239 35.9995C23.4234 38.4148 24.1237 40.7784 25.4399 42.8035H12.5879C11.9351 40.5945 11.6037 38.303 11.6039 35.9995ZM25.8239 35.9995C25.8239 33.9869 26.4208 32.0195 27.5389 30.3461C28.6571 28.6726 30.2463 27.3683 32.1058 26.5981C33.9652 25.8279 36.0112 25.6264 37.9852 26.0191C39.9591 26.4117 41.7723 27.3809 43.1955 28.804C44.6186 30.2272 45.5878 32.0404 45.9804 34.0143C46.3731 35.9883 46.1715 38.0343 45.4013 39.8937C44.6311 41.7532 43.3269 43.3424 41.6534 44.4606C39.98 45.5787 38.0126 46.1755 35.9999 46.1755C33.3031 46.1692 30.7184 45.0951 28.8114 43.1881C26.9044 41.2811 25.8303 38.6964 25.8239 35.9995ZM35.9999 11.6035C40.8474 11.607 45.584 13.0537 49.6061 15.7593C53.6283 18.4649 56.7536 22.3069 58.5839 26.7955H44.5439C42.2259 24.6301 39.1721 23.4256 35.9999 23.4256C32.8278 23.4256 29.774 24.6301 27.4559 26.7955H13.4159C15.2463 22.3069 18.3716 18.4649 22.3937 15.7593C26.4159 13.0537 31.1525 11.607 35.9999 11.6035Z" fill="#E26DFF"/>
<path d="M16.1757 31.5958H14.8797C14.5614 31.5958 14.2562 31.7222 14.0312 31.9473C13.8061 32.1723 13.6797 32.4775 13.6797 32.7958C13.6797 33.114 13.8061 33.4193 14.0312 33.6443C14.2562 33.8694 14.5614 33.9958 14.8797 33.9958H16.1757C16.4939 33.9958 16.7992 33.8694 17.0242 33.6443C17.2493 33.4193 17.3757 33.114 17.3757 32.7958C17.3757 32.4775 17.2493 32.1723 17.0242 31.9473C16.7992 31.7222 16.4939 31.5958 16.1757 31.5958ZM40.6917 34.2718L35.1477 31.0678C34.8438 30.8937 34.4995 30.8023 34.1492 30.8027C33.799 30.8032 33.4549 30.8954 33.1514 31.0702C32.8479 31.245 32.5955 31.4964 32.4194 31.7991C32.2433 32.1019 32.1496 32.4455 32.1477 32.7958V39.2038C32.1459 39.5555 32.2373 39.9013 32.4126 40.2063C32.5878 40.5112 32.8407 40.7643 33.1454 40.9398C33.4502 41.1153 33.7959 41.2071 34.1476 41.2056C34.4993 41.2042 34.8444 41.1098 35.1477 40.9318L40.6917 37.7278C40.999 37.5559 41.2549 37.3051 41.433 37.0014C41.6111 36.6977 41.705 36.3519 41.705 35.9998C41.705 35.6477 41.6111 35.3019 41.433 34.9982C41.2549 34.6944 40.999 34.4437 40.6917 34.2718ZM34.5477 38.5078V33.4918L38.8917 35.9998L34.5477 38.5078ZM57.9357 43.8718C57.6111 43.8718 57.2896 43.8078 56.9897 43.6836C56.6898 43.5594 56.4173 43.3773 56.1877 43.1478C55.9582 42.9182 55.7761 42.6457 55.6519 42.3458C55.5276 42.0459 55.4637 41.7244 55.4637 41.3998C55.4636 41.0816 55.3371 40.7764 55.1121 40.5514C54.8871 40.3265 54.5819 40.2001 54.2637 40.2001C53.9455 40.2001 53.6403 40.3265 53.4153 40.5514C53.1902 40.7764 53.0638 41.0816 53.0637 41.3998V52.0318C52.0284 51.2465 50.763 50.8247 49.4637 50.8318C48.277 50.8318 47.117 51.1837 46.1303 51.843C45.1436 52.5023 44.3745 53.4393 43.9204 54.5357C43.4663 55.632 43.3475 56.8384 43.579 58.0023C43.8105 59.1662 44.3819 60.2353 45.221 61.0744C46.0602 61.9135 47.1293 62.485 48.2931 62.7165C49.457 62.948 50.6634 62.8292 51.7598 62.3751C52.8561 61.9209 53.7932 61.1519 54.4525 60.1652C55.1118 59.1785 55.4637 58.0185 55.4637 56.8318V45.5998C56.2092 46.052 57.0638 46.2926 57.9357 46.2958C58.5674 46.311 59.1691 46.5688 59.6159 47.0156C60.0627 47.4624 60.3205 48.0641 60.3357 48.6958C60.3358 49.014 60.4622 49.3191 60.6873 49.5441C60.9123 49.7691 61.2175 49.8955 61.5357 49.8955C61.8539 49.8955 62.1591 49.7691 62.3841 49.5441C62.6091 49.3191 62.7356 49.014 62.7357 48.6958C62.7233 47.4244 62.2144 46.2082 61.3175 45.3068C60.4207 44.4055 59.207 43.8905 57.9357 43.8718ZM49.4637 60.3958C48.7517 60.3958 48.0557 60.1847 47.4636 59.7891C46.8716 59.3935 46.4102 58.8313 46.1377 58.1734C45.8652 57.5156 45.794 56.7918 45.9329 56.0935C46.0718 55.3951 46.4146 54.7537 46.9181 54.2502C47.4216 53.7467 48.063 53.4039 48.7614 53.265C49.4597 53.1261 50.1835 53.1973 50.8414 53.4698C51.4992 53.7423 52.0614 54.2037 52.457 54.7957C52.8526 55.3878 53.0637 56.0838 53.0637 56.7958C53.0637 57.7506 52.6844 58.6662 52.0093 59.3414C51.3341 60.0165 50.4185 60.3958 49.4637 60.3958Z" fill="#E26DFF"/>
</svg>
