<svg width="72" height="72" viewBox="0 0 72 72" fill="none" xmlns="http://www.w3.org/2000/svg">
<path d="M36 18.4922C32.7797 18.4922 30.1641 21.1078 30.1641 24.3281C30.1641 27.5484 32.7797 30.1641 36 30.1641C39.2203 30.1641 41.8359 27.5484 41.8359 24.3281C41.8359 21.1078 39.2203 18.4922 36 18.4922ZM36 27.2461C34.3898 27.2461 33.082 25.9383 33.082 24.3281C33.082 22.718 34.3898 21.4102 36 21.4102C37.6102 21.4102 38.918 22.718 38.918 24.3281C38.918 25.9383 37.6102 27.2461 36 27.2461ZM36 53.5078C39.2203 53.5078 41.8359 50.8922 41.8359 47.6719C41.8359 44.4516 39.2203 41.8359 36 41.8359C32.7797 41.8359 30.1641 44.4516 30.1641 47.6719C30.1641 50.8922 32.7797 53.5078 36 53.5078ZM36 44.7539C37.6102 44.7539 38.918 46.0617 38.918 47.6719C38.918 49.282 37.6102 50.5898 36 50.5898C34.3898 50.5898 33.082 49.282 33.082 47.6719C33.082 46.0617 34.3898 44.7539 36 44.7539ZM24.3281 30.8953C21.1078 30.8953 18.4922 33.5109 18.4922 36.7313C18.4922 39.9516 21.1078 42.5672 24.3281 42.5672C27.5484 42.5672 30.1641 39.9516 30.1641 36.7313C30.1641 33.5039 27.5484 30.8953 24.3281 30.8953ZM24.3281 39.6492C22.718 39.6492 21.4102 38.3414 21.4102 36.7313C21.4102 35.1211 22.718 33.8133 24.3281 33.8133C25.9383 33.8133 27.2461 35.1211 27.2461 36.7313C27.2461 38.3414 25.9383 39.6492 24.3281 39.6492ZM47.6719 42.5672C50.8922 42.5672 53.5078 39.9516 53.5078 36.7313C53.5078 33.5109 50.8922 30.8953 47.6719 30.8953C44.4516 30.8953 41.8359 33.5109 41.8359 36.7313C41.8359 39.9516 44.4516 42.5672 47.6719 42.5672ZM47.6719 33.8133C49.282 33.8133 50.5898 35.1211 50.5898 36.7313C50.5898 38.3414 49.282 39.6492 47.6719 39.6492C46.0617 39.6492 44.7539 38.3414 44.7539 36.7313C44.7539 35.1211 46.0617 33.8133 47.6719 33.8133Z" fill="#FF0000"/>
<path d="M63.7246 62.2621H36.0004C20.5316 62.2621 8.14255 48.8183 9.9074 32.998C11.2504 20.9676 20.9676 11.2504 32.998 9.9074C48.8183 8.14255 62.2621 20.5316 62.2621 36.0004C62.2621 44.1847 58.4793 51.4902 52.5871 56.3137C52.2496 56.5879 52.0457 56.9957 52.0457 57.4316V57.4738C52.0457 58.6902 53.466 59.3933 54.4082 58.6269C60.9824 53.2761 65.1801 45.134 65.1801 36.0004C65.1801 19.3644 51.2582 5.97693 34.4324 6.86287C19.7019 7.6363 7.6363 19.7019 6.86287 34.4324C5.97693 51.2582 19.3644 65.1801 36.0004 65.1801H63.7246C64.5261 65.1801 65.1871 64.5261 65.1871 63.7176C65.1801 62.916 64.5261 62.2621 63.7246 62.2621Z" fill="#FF0000"/>
<path d="M34.5371 35.9996C34.5371 36.1917 34.5749 36.3818 34.6484 36.5593C34.7219 36.7367 34.8297 36.8979 34.9655 37.0338C35.1013 37.1696 35.2625 37.2773 35.4399 37.3508C35.6174 37.4243 35.8076 37.4621 35.9996 37.4621C36.1917 37.4621 36.3818 37.4243 36.5593 37.3508C36.7367 37.2773 36.8979 37.1696 37.0338 37.0338C37.1696 36.8979 37.2773 36.7367 37.3508 36.5593C37.4243 36.3818 37.4621 36.1917 37.4621 35.9996C37.4621 35.6117 37.308 35.2397 37.0338 34.9655C36.7595 34.6912 36.3875 34.5371 35.9996 34.5371C35.6117 34.5371 35.2397 34.6912 34.9655 34.9655C34.6912 35.2397 34.5371 35.6117 34.5371 35.9996Z" fill="#FF0000"/>
</svg>
