<svg width="72" height="72" viewBox="0 0 72 72" fill="none" xmlns="http://www.w3.org/2000/svg">
<path d="M59.7843 47.472C59.466 47.472 59.1608 47.5985 58.9358 47.8235C58.7107 48.0485 58.5843 48.3538 58.5843 48.672V55.548C58.5812 55.6573 58.5355 55.7611 58.4571 55.8373C58.3787 55.9135 58.2736 55.9561 58.1643 55.956H18.9483V54.756C18.9483 54.4282 18.8181 54.1138 18.5863 53.882C18.3545 53.6502 18.0401 53.52 17.7123 53.52C17.3845 53.52 17.0701 53.6502 16.8383 53.882C16.6065 54.1138 16.4763 54.4282 16.4763 54.756V55.956H8.47229L10.2843 53.556C10.4517 53.3442 10.5428 53.082 10.5428 52.812C10.5428 52.542 10.4517 52.2799 10.2843 52.068L7.54829 48.468L10.2843 44.868C10.4487 44.6572 10.5381 44.3974 10.5381 44.13C10.5381 43.8626 10.4487 43.6029 10.2843 43.392L7.54829 39.6L10.2843 36C10.4487 35.7892 10.5381 35.5294 10.5381 35.262C10.5381 34.9946 10.4487 34.7349 10.2843 34.524L8.47229 32.124H16.4763V33.324C16.4763 33.6518 16.6065 33.9662 16.8383 34.198C17.0701 34.4298 17.3845 34.56 17.7123 34.56C18.0401 34.56 18.3545 34.4298 18.5863 34.198C18.8181 33.9662 18.9483 33.6518 18.9483 33.324V32.124H30.1203C30.4385 32.124 30.7438 31.9976 30.9688 31.7726C31.1939 31.5475 31.3203 31.2423 31.3203 30.924C31.3203 30.6058 31.1939 30.3005 30.9688 30.0755C30.7438 29.8505 30.4385 29.724 30.1203 29.724H13.5483L14.6283 24.648L35.0283 28.98C35.3465 29.0485 35.679 28.9876 35.9524 28.811C36.2258 28.6343 36.4179 28.3563 36.4863 28.038C36.5547 27.7198 36.4939 27.3874 36.3173 27.1139C36.1406 26.8405 35.8626 26.6485 35.5443 26.58L14.7843 22.164C14.2568 22.0641 13.7111 22.1736 13.2631 22.4693C12.815 22.765 12.4998 23.2237 12.3843 23.748L11.1123 29.748H6.00029C5.77004 29.7441 5.54352 29.8065 5.34776 29.9278C5.152 30.0491 4.99528 30.2241 4.89629 30.432C4.78951 30.6367 4.74404 30.8678 4.76532 31.0977C4.78661 31.3276 4.87375 31.5464 5.01629 31.728L7.75229 35.328L5.01629 38.928C4.84888 39.1399 4.75781 39.402 4.75781 39.672C4.75781 39.942 4.84888 40.2042 5.01629 40.416L7.75229 44.04L5.01629 47.64C4.84888 47.8519 4.75781 48.114 4.75781 48.384C4.75781 48.654 4.84888 48.9162 5.01629 49.128L7.75229 52.8L5.01629 56.4C4.87615 56.5804 4.79041 56.7971 4.76915 57.0245C4.74789 57.252 4.792 57.4808 4.89629 57.684C4.99353 57.8942 5.14951 58.0717 5.3454 58.1952C5.54129 58.3187 5.76874 58.3829 6.00029 58.38H58.1283C58.8953 58.38 59.6309 58.0753 60.1732 57.533C60.7156 56.9906 61.0203 56.255 61.0203 55.488V48.708C61.0253 48.5444 60.9967 48.3814 60.9364 48.2292C60.876 48.077 60.7852 47.9387 60.6694 47.8229C60.5536 47.7072 60.4153 47.6163 60.2631 47.5559C60.1109 47.4956 59.948 47.467 59.7843 47.472Z" fill="#0295FF"/>
<path d="M17.7116 44.9403C17.3933 44.9403 17.0881 45.0667 16.8631 45.2918C16.638 45.5168 16.5116 45.822 16.5116 46.1403V50.4363C16.5116 50.7641 16.6418 51.0785 16.8736 51.3103C17.1054 51.5421 17.4198 51.6723 17.7476 51.6723C18.0754 51.6723 18.3898 51.5421 18.6216 51.3103C18.8534 51.0785 18.9836 50.7641 18.9836 50.4363V46.1763C18.9889 46.0095 18.9593 45.8434 18.8968 45.6886C18.8343 45.5338 18.7402 45.3938 18.6205 45.2775C18.5007 45.1612 18.3581 45.0711 18.2016 45.013C18.0451 44.955 17.8782 44.9302 17.7116 44.9403ZM18.9476 37.5963C18.9476 37.2685 18.8174 36.9541 18.5856 36.7223C18.3538 36.4905 18.0394 36.3603 17.7116 36.3603C17.3838 36.3603 17.0694 36.4905 16.8376 36.7223C16.6058 36.9541 16.4756 37.2685 16.4756 37.5963V41.8923C16.4756 42.2201 16.6058 42.5345 16.8376 42.7663C17.0694 42.9981 17.3838 43.1283 17.7116 43.1283C18.0394 43.1283 18.3538 42.9981 18.5856 42.7663C18.8174 42.5345 18.9476 42.2201 18.9476 41.8923V37.5963ZM25.8236 38.5083H30.9116C31.2394 38.5083 31.5538 38.3781 31.7856 38.1463C32.0174 37.9145 32.1476 37.6001 32.1476 37.2723C32.1476 36.9445 32.0174 36.6301 31.7856 36.3983C31.5538 36.1665 31.2394 36.0363 30.9116 36.0363H25.8236C25.4958 36.0363 25.1814 36.1665 24.9496 36.3983C24.7178 36.6301 24.5876 36.9445 24.5876 37.2723C24.5876 37.6001 24.7178 37.9145 24.9496 38.1463C25.1814 38.3781 25.4958 38.5083 25.8236 38.5083ZM43.1156 46.0323C43.1156 45.714 42.9892 45.4088 42.7641 45.1838C42.5391 44.9587 42.2338 44.8323 41.9156 44.8323H25.8236C25.4958 44.8323 25.1814 44.9625 24.9496 45.1943C24.7178 45.4261 24.5876 45.7405 24.5876 46.0683C24.5876 46.3961 24.7178 46.7105 24.9496 46.9423C25.1814 47.1741 25.4958 47.3043 25.8236 47.3043H41.8796C42.0464 47.3096 42.2125 47.2801 42.3673 47.2175C42.5221 47.155 42.6621 47.0609 42.7784 46.9412C42.8947 46.8215 42.9848 46.6788 43.0429 46.5223C43.1009 46.3658 43.1257 46.1989 43.1156 46.0323ZM25.8236 49.5603C25.4958 49.5603 25.1814 49.6905 24.9496 49.9223C24.7178 50.1541 24.5876 50.4685 24.5876 50.7963C24.5876 51.1241 24.7178 51.4385 24.9496 51.6703C25.1814 51.9021 25.4958 52.0323 25.8236 52.0323H37.8236C38.1514 52.0323 38.4658 51.9021 38.6976 51.6703C38.9294 51.4385 39.0596 51.1241 39.0596 50.7963C39.0596 50.4685 38.9294 50.1541 38.6976 49.9223C38.4658 49.6905 38.1514 49.5603 37.8236 49.5603H25.8236ZM67.1996 40.1043L61.3436 25.2003L64.7996 21.8043C65.696 20.9021 66.2443 19.7119 66.3476 18.4443C66.4056 17.9045 66.3407 17.3585 66.1578 16.8473C65.9749 16.3361 65.6788 15.8729 65.2916 15.4923C64.9079 15.1039 64.4435 14.8048 63.9312 14.6161C63.419 14.4274 62.8715 14.3537 62.3276 14.4003C61.069 14.5111 59.8888 15.0587 58.9916 15.9483L55.5116 19.4283L40.6676 13.6203C40.4437 13.5261 40.1965 13.502 39.9587 13.5513C39.7209 13.6006 39.5036 13.7209 39.3356 13.8963L36.6236 16.6083C36.498 16.7305 36.4007 16.8786 36.3385 17.0424C36.2763 17.2062 36.2508 17.3816 36.2636 17.5563C36.284 17.8586 36.4117 18.1437 36.6236 18.3603C36.658 18.3987 36.6986 18.4311 36.7436 18.4563L39.7076 20.7603L39.3356 21.1323C39.1033 21.3646 38.9727 21.6797 38.9727 22.0083C38.9727 22.3369 39.1033 22.652 39.3356 22.8843C39.5679 23.1166 39.883 23.2471 40.2116 23.2471C40.5402 23.2471 40.8553 23.1166 41.0876 22.8843L41.6756 22.2963L43.7756 23.9283L43.3916 24.3123C43.2765 24.4273 43.1853 24.5639 43.123 24.7142C43.0608 24.8645 43.0287 25.0256 43.0287 25.1883C43.0287 25.351 43.0608 25.5121 43.123 25.6624C43.1853 25.8127 43.2765 25.9493 43.3916 26.0643C43.5066 26.1793 43.6432 26.2706 43.7935 26.3328C43.9438 26.3951 44.1049 26.4271 44.2676 26.4271C44.4303 26.4271 44.5914 26.3951 44.7417 26.3328C44.892 26.2706 45.0285 26.1793 45.1436 26.0643L45.7436 25.4643L47.8436 27.0963L43.7876 31.2003L43.1516 31.8843L39.2276 30.3723C39.0041 30.2822 38.7586 30.2615 38.5232 30.3129C38.2878 30.3642 38.0733 30.4853 37.9076 30.6603L36.1676 32.4003C36.0477 32.5125 35.9521 32.6482 35.8868 32.7989C35.8214 32.9496 35.7877 33.1121 35.7877 33.2763C35.7877 33.4405 35.8214 33.603 35.8868 33.7537C35.9521 33.9044 36.0477 34.04 36.1676 34.1523L39.8516 37.8363C39.7916 38.0523 39.7196 38.2683 39.6716 38.4843C39.5793 38.8524 39.584 39.238 39.6852 39.6037C39.7864 39.9694 39.9806 40.3027 40.2489 40.571C40.5172 40.8393 40.8504 41.0335 41.2161 41.1347C41.5819 41.2359 41.9675 41.2405 42.3356 41.1483L42.9716 40.9683L46.6676 44.6523C46.7797 44.7703 46.9146 44.8643 47.0642 44.9285C47.2138 44.9927 47.3748 45.0258 47.5376 45.0258C47.7004 45.0258 47.8614 44.9927 48.011 44.9285C48.1605 44.8643 48.2955 44.7703 48.4076 44.6523L50.1596 42.9003C50.3325 42.7333 50.4513 42.5181 50.5005 42.2827C50.5498 42.0474 50.5271 41.8026 50.4356 41.5803L48.9356 37.6563C49.1636 37.4523 49.3916 37.2483 49.6076 37.0323L53.6636 32.9643L55.3076 35.0763L54.7076 35.6643C54.5877 35.7765 54.4921 35.9122 54.4268 36.0629C54.3614 36.2136 54.3277 36.3761 54.3277 36.5403C54.3277 36.7045 54.3614 36.867 54.4268 37.0177C54.4921 37.1684 54.5877 37.304 54.7076 37.4163C54.8198 37.5362 54.9555 37.6318 55.1062 37.6971C55.2569 37.7624 55.4194 37.7962 55.5836 37.7962C55.7478 37.7962 55.9103 37.7624 56.061 37.6971C56.2117 37.6318 56.3473 37.5362 56.4596 37.4163L56.8316 37.0443L58.4756 39.1443L57.8876 39.7323C57.6553 39.9646 57.5247 40.2797 57.5247 40.6083C57.5247 40.9369 57.6553 41.252 57.8876 41.4843C58.1199 41.7166 58.435 41.8471 58.7636 41.8471C59.0921 41.8471 59.4073 41.7166 59.6396 41.4843L59.9996 41.1123L62.3036 44.0763L62.4116 44.1963C62.6268 44.4031 62.9062 44.5302 63.2036 44.5563C63.3803 44.5709 63.558 44.5462 63.724 44.484C63.89 44.4217 64.0401 44.3235 64.1636 44.1963L66.8756 41.4723C67.0666 41.3073 67.2007 41.0863 67.2589 40.8407C67.3171 40.5951 67.2963 40.3374 67.1996 40.1043ZM40.7996 35.2803L38.7476 33.2283L39.0596 32.9283L41.5796 33.8883C41.2964 34.3389 41.036 34.8035 40.7996 35.2803ZM39.3596 17.3643L40.5596 16.1643L53.6516 21.2883L49.6556 25.2843L39.3596 17.3643ZM47.5316 42.0003L45.4916 39.9603C45.9596 39.7203 46.4276 39.4563 46.8716 39.1803L47.8436 41.7003L47.5316 42.0003ZM47.8556 35.2563C46.2782 36.8296 44.3305 37.9809 42.1916 38.6043C42.8233 36.4449 43.9964 34.4828 45.5996 32.9043L60.7436 17.7003C61.2262 17.2174 61.8635 16.92 62.5436 16.8603C62.7222 16.8438 62.9022 16.8676 63.0705 16.9299C63.2387 16.9922 63.3908 17.0915 63.5156 17.2203C63.6523 17.3563 63.7543 17.5234 63.8128 17.7072C63.8713 17.891 63.8846 18.0862 63.8516 18.2763C63.796 18.9446 63.5022 19.5706 63.0236 20.0403L47.8556 35.2563ZM63.3956 41.4003L55.4276 31.2003L59.4356 27.2043L64.5476 40.2963L63.3956 41.4003Z" fill="#0295FF"/>
</svg>
