<svg width="24" height="24" viewBox="0 0 24 24" fill="none" xmlns="http://www.w3.org/2000/svg">
<path d="M12.9683 11.9997L20.7992 4.16907C21.0669 3.90133 21.0669 3.46853 20.7992 3.2008C20.5315 2.93307 20.0986 2.93307 19.8309 3.2008L12 11.0315L4.1691 3.2008C3.90136 2.93307 3.46855 2.93307 3.20081 3.2008C2.93306 3.46853 2.93306 3.90133 3.20081 4.16907L11.0317 11.9997L3.20081 19.8304C2.93306 20.0982 2.93306 20.531 3.20081 20.7987C3.33367 20.9316 3.50881 21 3.68395 21C3.85908 21 4.03422 20.9336 4.16709 20.7987L11.998 12.968L19.8289 20.7987C19.9618 20.9316 20.1369 21 20.312 21C20.4872 21 20.6623 20.9336 20.7952 20.7987C21.0629 20.531 21.0629 20.0982 20.7952 19.8304L12.9683 11.9997Z" fill="black" stroke="black" stroke-width="0.4"/>
</svg>
