<svg width="24" height="24" viewBox="0 0 24 24" fill="none" xmlns="http://www.w3.org/2000/svg">
<path d="M4.05331 8.56889H7.48277V19.9733H4.05331V8.56889ZM5.77692 4C5.30565 4 4.85369 4.1873 4.52045 4.5207C4.18721 4.8541 4 5.30628 4 5.77778C4.02501 6.23212 4.22321 6.65958 4.55378 6.97211C4.88434 7.28465 5.32211 7.45847 5.77692 7.45778C6.23174 7.45847 6.6695 7.28465 7.00007 6.97211C7.33063 6.65958 7.52883 6.23212 7.55385 5.77778C7.55385 5.30628 7.36664 4.8541 7.0334 4.5207C6.70016 4.1873 6.24819 4 5.77692 4V4ZM18.8817 10.08C18.5341 9.67898 18.0976 9.36484 17.6071 9.16265C17.1165 8.96047 16.5855 8.87585 16.0564 8.91556C15.3726 8.89965 14.6974 9.06987 14.1027 9.40804C13.5081 9.7462 13.0164 10.2396 12.6803 10.8356H12.627V8.56889H9.74835C9.80165 9.73333 9.74835 19.9733 9.74835 19.9733H13.1778V12.8889C13.2565 12.4993 13.4735 12.1514 13.7887 11.9096C14.104 11.6677 14.4961 11.5483 14.8925 11.5733C16.0031 11.5733 16.554 12.3822 16.554 13.9467V20H19.9923V13.5111C20.0612 12.2691 19.6653 11.0459 18.8817 10.08V10.08Z" fill="black"/>
</svg>
