<svg width="24" height="24" viewBox="0 0 24 24" fill="none" xmlns="http://www.w3.org/2000/svg">
<path d="M12.6504 3.26953C13.3984 3.26953 14.0117 3.83984 14.082 4.56836L14.0898 4.70703V9.89844H19.1055C19.9453 9.89844 20.6367 10.543 20.7109 11.3672L20.7187 11.5137V19.1133C20.7187 19.9551 20.0742 20.6465 19.252 20.7207L19.1055 20.7266H11.5039C10.6621 20.7266 9.9707 20.082 9.89648 19.2598L9.89062 19.1133V14.0977H4.69922C3.95898 14.0977 3.33984 13.5352 3.26758 12.7988L3.26172 12.6602V4.70703C3.26172 3.95898 3.83203 3.34766 4.56055 3.27734L4.70117 3.26953H12.6504V3.26953ZM19.1035 10.8301H14.0898V12.6602C14.0879 13.4082 13.5195 14.0215 12.7891 14.0898L12.6504 14.0977H10.8203V19.1133C10.8203 19.4551 11.0742 19.7383 11.4023 19.7891L11.502 19.7969H19.1035C19.4453 19.7969 19.7285 19.543 19.7773 19.2148L19.7852 19.1152V11.5137C19.7852 11.1367 19.4824 10.8301 19.1035 10.8301V10.8301ZM5.26367 15.0195L5.31836 15.0176C5.55469 15.0176 5.75391 15.1953 5.78125 15.4297C5.78516 15.4668 5.85742 16.0176 6.20508 16.6074C6.5293 17.1582 7.08789 17.7422 8.0625 17.9922L8.2793 18.041H8.28125C8.4707 18.0859 8.60547 18.2383 8.63672 18.416L8.64453 18.4961L8.63281 18.6016C8.5918 18.7852 8.44336 18.9258 8.25781 18.957L8.17969 18.9629L8.10547 18.957H8.10352C6.66211 18.6777 5.8457 17.8262 5.39844 17.0488C5.12891 16.5879 4.94727 16.0801 4.85937 15.5527V15.5371L4.85547 15.4824C4.85547 15.2793 4.98633 15.0977 5.18164 15.0371L5.26367 15.0195L5.31641 15.0176L5.26367 15.0195V15.0195ZM15.5781 12.8789C15.7461 12.8789 15.8965 12.9668 15.9785 13.1055L16.0137 13.1777L17.6621 17.4727L17.6934 17.6406C17.6934 17.8047 17.6074 17.9551 17.4687 18.041L17.3945 18.0781L17.2285 18.1094C17.0664 18.1094 16.9141 18.0254 16.8281 17.8867L16.791 17.8105L16.4375 16.8828H14.6855L14.3203 17.8125C14.2598 17.9648 14.125 18.0742 13.9629 18.1016L13.8848 18.1074L13.7148 18.0742C13.5625 18.0137 13.4531 17.8809 13.4258 17.7187L13.4199 17.6387L13.4531 17.4668L15.1445 13.1719C15.2031 13.0195 15.3359 12.9102 15.4961 12.8828L15.5781 12.8789H15.5801H15.5781ZM15.5723 14.6309L15.0527 15.9512H16.0781L15.5723 14.6309ZM12.6504 4.20117H4.70117C4.45703 4.20312 4.24805 4.37695 4.20312 4.61719L4.19531 4.70703V12.6621C4.19531 12.9063 4.37109 13.1152 4.60938 13.1582L4.70117 13.168H12.6543C12.8984 13.166 13.1074 12.9922 13.1523 12.752L13.1602 12.6602V4.70703C13.1602 4.42773 12.9336 4.20117 12.6543 4.20117H12.6504V4.20117ZM8.63477 5.67969C8.89258 5.67969 9.09961 5.88867 9.09961 6.14453V6.68555H10.6191C11.0098 6.68555 11.3281 7.00195 11.3281 7.39453V8.86328C11.3281 9.25391 11.0098 9.57227 10.6191 9.57227H9.09961V11.3145C9.08789 11.5645 8.88281 11.7598 8.63281 11.7598C8.38281 11.7598 8.17773 11.5645 8.16602 11.3145V9.57227H6.64844C6.25781 9.57031 5.93945 9.25391 5.93945 8.86133V7.39453C5.94141 7.00391 6.25781 6.6875 6.64844 6.68555H8.16797V6.14453C8.16797 5.88867 8.37695 5.67969 8.63477 5.67969V5.67969ZM10.3965 7.61719H9.09961V8.64062H10.3945L10.3965 7.61719ZM8.16797 7.61719H6.87109V8.64062H8.16602L8.16797 7.61719ZM15.9492 4.71484L15.9844 4.7168C16.5566 4.76172 17.375 4.98828 18.0703 5.51562C18.7168 6.00781 19.25 6.76953 19.3437 7.875L19.3574 8.11719C19.3574 8.34961 19.1992 8.54102 18.9863 8.58594L18.9043 8.5957H18.8906C18.6387 8.5957 18.4316 8.39453 18.4258 8.14062C18.3926 7.00195 17.7988 6.39453 17.1895 6.05078C16.7988 5.83789 16.3711 5.69922 15.9277 5.64648L15.9102 5.64453L15.8223 5.62891C15.6523 5.58203 15.5234 5.44141 15.4902 5.26953L15.4824 5.18164L15.4844 5.14453C15.5059 4.90234 15.709 4.7168 15.9492 4.71484V4.71484Z" fill="black"/>
</svg>
