<svg width="20" height="20" viewBox="0 0 20 20" fill="none" xmlns="http://www.w3.org/2000/svg">
<path d="M12.6612 16.6067C12.598 16.6595 12.5249 16.6992 12.4462 16.7237C12.3675 16.7481 12.2848 16.7567 12.2028 16.749C12.1208 16.7414 12.0411 16.7176 11.9683 16.679C11.8955 16.6404 11.831 16.5878 11.7786 16.5243C11.7262 16.4607 11.6869 16.3874 11.6629 16.3086C11.639 16.2297 11.6308 16.147 11.639 16.065C11.6471 15.983 11.6714 15.9034 11.7104 15.8309C11.7494 15.7583 11.8024 15.6942 11.8663 15.6421C14.8106 13.2165 16.25 11.0553 16.25 9.20046C16.25 5.72921 13.451 2.9165 10 2.9165C6.54896 2.9165 3.75 5.72921 3.75 9.20046C3.75 11.4511 5.8675 14.1428 10.1792 17.1984C10.3144 17.2942 10.406 17.4399 10.4338 17.6033C10.4617 17.7667 10.4235 17.9345 10.3276 18.0697C10.2317 18.205 10.0861 18.2966 9.92267 18.3244C9.75926 18.3523 9.59148 18.314 9.45625 18.2182C4.84417 14.9496 2.5 11.9696 2.5 9.20046C2.5 5.04025 5.85708 1.6665 10 1.6665C14.1429 1.6665 17.5 5.04025 17.5 9.20046C17.5 11.5125 15.8652 13.9671 12.6612 16.6067ZM10 12.0832C8.38917 12.0832 7.08333 10.7773 7.08333 9.1665C7.08333 7.55567 8.38917 6.24984 10 6.24984C11.6108 6.24984 12.9167 7.55567 12.9167 9.1665C12.9167 10.7773 11.6108 12.0832 10 12.0832ZM10 10.8332C10.442 10.8332 10.866 10.6576 11.1785 10.345C11.4911 10.0325 11.6667 9.60853 11.6667 9.1665C11.6667 8.72448 11.4911 8.30055 11.1785 7.98799C10.866 7.67543 10.442 7.49984 10 7.49984C9.55797 7.49984 9.13405 7.67543 8.82149 7.98799C8.50893 8.30055 8.33333 8.72448 8.33333 9.1665C8.33333 9.60853 8.50893 10.0325 8.82149 10.345C9.13405 10.6576 9.55797 10.8332 10 10.8332Z" fill="black"/>
</svg>
