<svg width="24" height="24" viewBox="0 0 24 24" fill="none" xmlns="http://www.w3.org/2000/svg">
<path d="M20.3571 5H3.64286C3.28728 5 3 5.28437 3 5.63636V18.3636C3 18.7156 3.28728 19 3.64286 19H20.3571C20.7127 19 21 18.7156 21 18.3636V5.63636C21 5.28437 20.7127 5 20.3571 5ZM19.5536 7.20341V17.5682H4.44643V7.20341L3.89196 6.77585L4.68147 5.77159L5.54129 6.43381H18.4607L19.3205 5.77159L20.11 6.77585L19.5536 7.20341V7.20341ZM18.4607 6.43182L12 11.4034L5.53929 6.43182L4.67946 5.7696L3.88996 6.77386L4.44442 7.20142L11.3069 12.4832C11.5043 12.635 11.7471 12.7174 11.997 12.7174C12.2469 12.7174 12.4897 12.635 12.6871 12.4832L19.5536 7.20341L20.108 6.77585L19.3185 5.77159L18.4607 6.43182Z" fill="black"/>
</svg>
