<svg width="32" height="32" viewBox="0 0 32 32" fill="none" xmlns="http://www.w3.org/2000/svg">
<path d="M16.0003 4.66667C22.2597 4.66667 27.3337 9.74067 27.3337 16C27.3337 22.2593 22.2597 27.3333 16.0003 27.3333C9.74099 27.3333 4.66699 22.2593 4.66699 16C4.66699 9.74067 9.74099 4.66667 16.0003 4.66667ZM16.0003 6.66667C10.8457 6.66667 6.66699 10.8453 6.66699 16C6.66699 21.1547 10.8457 25.3333 16.0003 25.3333C21.155 25.3333 25.3337 21.1547 25.3337 16C25.3337 10.8453 21.155 6.66667 16.0003 6.66667V6.66667ZM21.059 16.9953L22.9417 17.6713C20.4083 24.7207 10.9077 24.7207 9.03299 17.5873L10.9677 17.0793C12.3263 22.2513 19.171 22.2513 21.059 16.9953V16.9953ZM13.3337 11.3333C13.6873 11.3333 14.0264 11.4738 14.2765 11.7239C14.5265 11.9739 14.667 12.313 14.667 12.6667V14.6667C14.667 14.8418 14.6326 15.0152 14.5656 15.177C14.4986 15.3388 14.4004 15.4858 14.2765 15.6096C14.1527 15.7334 14.0057 15.8317 13.8439 15.8987C13.6822 15.9657 13.5088 16.0002 13.3337 16.0002C13.1585 16.0002 12.9851 15.9657 12.8234 15.8987C12.6616 15.8317 12.5146 15.7334 12.3908 15.6096C12.267 15.4858 12.1688 15.3388 12.1018 15.177C12.0348 15.0152 12.0003 14.8418 12.0003 14.6667V12.6667C12.0003 12.313 12.1408 11.9739 12.3908 11.7239C12.6409 11.4738 12.98 11.3333 13.3337 11.3333V11.3333ZM18.667 11.3333C19.0206 11.3333 19.3598 11.4738 19.6098 11.7239C19.8598 11.9739 20.0003 12.313 20.0003 12.6667V14.6667C20.0004 14.8418 19.9659 15.0152 19.8989 15.177C19.8319 15.3388 19.7337 15.4858 19.6099 15.6096C19.4861 15.7334 19.3391 15.8317 19.1773 15.8987C19.0155 15.9657 18.8421 16.0002 18.667 16.0002C18.4919 16.0002 18.3185 15.9657 18.1567 15.8987C17.9949 15.8317 17.8479 15.7334 17.7241 15.6096C17.6003 15.4858 17.5021 15.3388 17.4351 15.177C17.3681 15.0152 17.3336 14.8418 17.3337 14.6667V12.6667C17.3337 12.313 17.4741 11.9739 17.7242 11.7239C17.9742 11.4738 18.3134 11.3333 18.667 11.3333V11.3333Z" fill="black"/>
</svg>
