<svg width="32" height="32" viewBox="0 0 32 32" fill="none" xmlns="http://www.w3.org/2000/svg">
<path d="M25.9623 15.2907L27.3717 16.7093L17.3003 26.7093L16.8423 26.248L17.303 26.7133H15.8963V25.2953L15.8917 25.2907L25.9623 15.2907V15.2907ZM23.3337 5.33334C23.8641 5.33334 24.3728 5.54405 24.7479 5.91912C25.1229 6.29419 25.3337 6.8029 25.3337 7.33334V13.3333L23.3337 15.3333V7.33334H12.3337V24.6667H14.0003L12.0003 26.6667H8.66699C8.13656 26.6667 7.62785 26.456 7.25278 26.0809C6.87771 25.7058 6.66699 25.1971 6.66699 24.6667V7.33334C6.66699 6.8029 6.87771 6.29419 7.25278 5.91912C7.62785 5.54405 8.13656 5.33334 8.66699 5.33334H23.3337ZM10.3337 7.33334H8.66699V24.6667H10.3337V7.33334ZM19.3337 13.3333V15.3333H14.0003V13.3333H19.3337ZM21.3337 9.33334V11.3333H14.0003V9.33334H21.3337Z" fill="black"/>
</svg>
