<svg width="32" height="32" viewBox="0 0 32 32" fill="none" xmlns="http://www.w3.org/2000/svg">
<path d="M25.5426 6.66666C26.0731 6.66666 26.5818 6.87738 26.9569 7.25245C27.3319 7.62752 27.5426 8.13623 27.5426 8.66666V23.3333C27.5426 23.8638 27.3319 24.3725 26.9569 24.7475C26.5818 25.1226 26.0731 25.3333 25.5426 25.3333H6.87598C6.34554 25.3333 5.83684 25.1226 5.46176 24.7475C5.08669 24.3725 4.87598 23.8638 4.87598 23.3333V8.66666C4.87598 8.13623 5.08669 7.62752 5.46176 7.25245C5.83684 6.87738 6.34554 6.66666 6.87598 6.66666H25.5426V6.66666ZM25.5426 8.66666H6.87598V23.3333H25.5426V8.66666V8.66666ZM23.3333 11.5973V13.596C20.1893 13.5507 18.23 14.5427 17.2866 16.5407L17.2146 16.7007L17.1253 16.8993C15.75 19.8727 13.0913 21.3513 9.33398 21.3007V19.3007C12.3413 19.3507 14.2693 18.2887 15.3006 16.0807L15.38 15.9047L15.462 15.722C16.764 12.92 19.446 11.5553 23.3333 11.5973V11.5973ZM10.9053 11.0587C11.0804 11.0587 11.2538 11.0932 11.4156 11.1602C11.5773 11.2272 11.7243 11.3254 11.8481 11.4492C11.9719 11.573 12.0701 11.72 12.1371 11.8818C12.2042 12.0435 12.2386 12.2169 12.2386 12.392C12.2386 12.5671 12.2042 12.7405 12.1371 12.9022C12.0701 13.064 11.9719 13.211 11.8481 13.3348C11.7243 13.4586 11.5773 13.5568 11.4156 13.6238C11.2538 13.6908 11.0804 13.7253 10.9053 13.7253C10.5517 13.7253 10.2125 13.5849 9.9625 13.3348C9.71245 13.0848 9.57198 12.7456 9.57198 12.392C9.57198 12.0384 9.71245 11.6992 9.9625 11.4492C10.2125 11.1991 10.5517 11.0587 10.9053 11.0587V11.0587Z" fill="black"/>
</svg>
