<svg width="32" height="32" viewBox="0 0 32 32" fill="none" xmlns="http://www.w3.org/2000/svg">
<path d="M15.333 16.6667V24.6667C15.333 25.1971 15.1223 25.7058 14.7472 26.0809C14.3721 26.456 13.8634 26.6667 13.333 26.6667H7.33301C6.80257 26.6667 6.29387 26.456 5.91879 26.0809C5.54372 25.7058 5.33301 25.1971 5.33301 24.6667V18.6667C5.33301 18.1362 5.54372 17.6275 5.91879 17.2525C6.29387 16.8774 6.80257 16.6667 7.33301 16.6667H15.333ZM24.6663 16.6667C25.1968 16.6667 25.7055 16.8774 26.0806 17.2525C26.4556 17.6275 26.6663 18.1362 26.6663 18.6667V24.6667C26.6663 25.1971 26.4556 25.7058 26.0806 26.0809C25.7055 26.456 25.1968 26.6667 24.6663 26.6667H18.6663C18.1359 26.6667 17.6272 26.456 17.2521 26.0809C16.8771 25.7058 16.6663 25.1971 16.6663 24.6667V16.6667H24.6663ZM13.333 18.6667H7.33301V24.6667H13.333V18.6667ZM24.6663 18.6667H18.6663V24.6667H24.6663V18.6667ZM13.333 5.33334C13.8634 5.33334 14.3721 5.54405 14.7472 5.91912C15.1223 6.29419 15.333 6.8029 15.333 7.33334V15.3333H7.33301C6.80257 15.3333 6.29387 15.1226 5.91879 14.7475C5.54372 14.3725 5.33301 13.8638 5.33301 13.3333V7.33334C5.33301 6.8029 5.54372 6.29419 5.91879 5.91912C6.29387 5.54405 6.80257 5.33334 7.33301 5.33334H13.333V5.33334ZM21.6663 5.33334C22.9924 5.33334 24.2642 5.86012 25.2019 6.7978C26.1396 7.73548 26.6663 9.00725 26.6663 10.3333C26.6663 11.6594 26.1396 12.9312 25.2019 13.8689C24.2642 14.8066 22.9924 15.3333 21.6663 15.3333C20.3403 15.3333 19.0685 14.8066 18.1308 13.8689C17.1931 12.9312 16.6663 11.6594 16.6663 10.3333C16.6663 9.00725 17.1931 7.73548 18.1308 6.7978C19.0685 5.86012 20.3403 5.33334 21.6663 5.33334V5.33334ZM13.333 7.33334H7.33301V13.3333H13.333V7.33334V7.33334ZM21.6663 7.33334C20.8707 7.33334 20.1076 7.64941 19.545 8.21202C18.9824 8.77462 18.6663 9.53769 18.6663 10.3333C18.6663 11.129 18.9824 11.892 19.545 12.4547C20.1076 13.0173 20.8707 13.3333 21.6663 13.3333C22.462 13.3333 23.2251 13.0173 23.7877 12.4547C24.3503 11.892 24.6663 11.129 24.6663 10.3333C24.6663 9.53769 24.3503 8.77462 23.7877 8.21202C23.2251 7.64941 22.462 7.33334 21.6663 7.33334V7.33334Z" fill="black"/>
</svg>
