<svg width="32" height="32" viewBox="0 0 32 32" fill="none" xmlns="http://www.w3.org/2000/svg">
<path d="M28 26V28H18.6667V26H28ZM16.886 5.02667L24.9593 8.61267C25.3131 8.76968 25.6137 9.02596 25.8247 9.35043C26.0357 9.67491 26.148 10.0536 26.148 10.4407V18H24.148V12.3233L17.3887 15.3267V26.0733H17.3333V26.7733L16.886 26.972C16.6304 27.0855 16.3539 27.1441 16.0743 27.1441C15.7947 27.1441 15.5182 27.0855 15.2627 26.972L7.188 23.3867C6.83447 23.2296 6.53407 22.9734 6.32321 22.649C6.11235 22.3247 6.00008 21.9462 6 21.5593V10.4407C5.99995 10.0537 6.11216 9.67503 6.32303 9.35057C6.5339 9.0261 6.83436 8.76978 7.188 8.61267L15.2627 5.02733C15.5182 4.91386 15.7947 4.85523 16.0743 4.85523C16.3539 4.85523 16.6304 4.91386 16.886 5.02733V5.02667ZM8 12.23V21.56L15.3887 24.8413V15.286L8 12.2293V12.23ZM28 22.6667V24.6667H18.6667V22.6667H28ZM28 19.3333V21.3333H18.6667V19.3333H28ZM16.074 6.85533L8.438 10.246L16.4447 13.5593L23.804 10.288L16.074 6.85467V6.85533Z" fill="black"/>
</svg>
