<svg width="32" height="32" viewBox="0 0 32 32" fill="none" xmlns="http://www.w3.org/2000/svg">
<path d="M8.66699 9.33333V24.6667H22.3337V26.6667H9.66699C8.89581 26.6667 8.15425 26.3697 7.59625 25.8374C7.03824 25.3051 6.70666 24.5783 6.67033 23.808L6.66699 23.6667V9.33333H8.66699V9.33333ZM23.4417 5.34C23.9721 5.34 24.4808 5.55071 24.8559 5.92579C25.2309 6.30086 25.4417 6.80957 25.4417 7.34V21.4413C25.4417 21.9718 25.2309 22.4805 24.8559 22.8555C24.4808 23.2306 23.9721 23.4413 23.4417 23.4413H9.99366V7.34C9.99366 6.80957 10.2044 6.30086 10.5794 5.92579C10.9545 5.55071 11.4632 5.34 11.9937 5.34H23.4417V5.34ZM23.4417 7.34H11.9937V21.4413H23.4417V7.34V7.34ZM20.0003 9.33333V11.3333H14.0003V9.33333H20.0003Z" fill="black"/>
</svg>
