<svg width="24" height="24" viewBox="0 0 24 24" fill="none" xmlns="http://www.w3.org/2000/svg">
<path d="M22.9998 5.24351V18.6075C22.9998 19.711 22.2198 20.166 21.2573 19.6205L9.42133 12.9135C8.45933 12.3685 8.45883 11.4835 9.42133 10.9385L21.2573 4.2305C22.2188 3.686 22.9998 4.139 22.9998 5.24351ZM9.91483 11.8085C9.85432 11.8413 9.79749 11.8806 9.74533 11.9255C9.78533 11.9615 9.84083 12.0015 9.91433 12.0435L21.7503 18.75C22.0458 18.9175 21.9998 18.945 21.9998 18.607V5.24351C21.9998 4.90601 22.0463 4.9335 21.7498 5.101L9.91483 11.808V11.8085ZM14.5083 6.0105L14.5073 5.7985C14.5048 5.077 14.1348 4.863 13.5063 5.219L2.50083 11.4555C1.87733 11.8085 1.87733 12.2045 2.50083 12.5575L13.5058 18.794C14.1338 19.1495 14.5028 18.934 14.5048 18.211V18.0075C14.505 17.9418 14.5181 17.8769 14.5434 17.8163C14.5686 17.7557 14.6056 17.7006 14.6522 17.6543C14.6987 17.608 14.7539 17.5713 14.8146 17.5463C14.8754 17.5214 14.9404 17.5086 15.0061 17.5088C15.0717 17.5089 15.1367 17.522 15.1973 17.5473C15.2579 17.5726 15.313 17.6095 15.3593 17.6561C15.4056 17.7026 15.4423 17.7578 15.4672 17.8186C15.4922 17.8793 15.505 17.9443 15.5048 18.01V18.2135C15.5013 19.701 14.3073 20.397 13.0133 19.6635L2.00783 13.428C0.708328 12.692 0.708328 11.322 2.00783 10.586L13.0128 4.34951C14.3068 3.61651 15.5018 4.309 15.5078 5.795V6.00701C15.5081 6.07267 15.4954 6.13774 15.4705 6.1985C15.4456 6.25926 15.409 6.31453 15.3628 6.36114C15.3166 6.40776 15.2616 6.44481 15.201 6.47018C15.1405 6.49555 15.0755 6.50874 15.0098 6.50901C14.8772 6.50954 14.7498 6.45737 14.6557 6.36397C14.5615 6.27058 14.5084 6.14361 14.5078 6.011L14.5083 6.0105Z" fill="black"/>
</svg>
