<svg width="24" height="24" viewBox="0 0 24 24" fill="none" xmlns="http://www.w3.org/2000/svg">
<g clip-path="url(#clip0_892_72)">
<path d="M12 24C5.35 24 0 18.65 0 12C0 5.35 5.35 0 12 0C18.65 0 24 5.35 24 12C24 18.65 18.65 24 12 24ZM12 23C18.1 23 23 18.1 23 12C23 5.9 18.1 1 12 1C5.9 1 1 5.9 1 12C1 18.1 5.9 23 12 23ZM9.5 7C9.8 7 10 7.2 10 7.5V16.5C10 16.8 9.8 17 9.5 17C9.2 17 9 16.8 9 16.5V7.5C9 7.2 9.2 7 9.5 7V7ZM14.5 7C14.8 7 15 7.2 15 7.5V16.5C15 16.8 14.8 17 14.5 17C14.2 17 14 16.8 14 16.5V7.5C14 7.2 14.2 7 14.5 7V7Z" fill="black"/>
</g>
<defs>
<clipPath id="clip0_892_72">
<rect width="24" height="24" fill="white"/>
</clipPath>
</defs>
</svg>
