<svg width="24" height="24" viewBox="0 0 24 24" fill="none" xmlns="http://www.w3.org/2000/svg">
<path d="M14.085 11.8079L2.25 5.10091C1.9535 4.93291 2 4.90591 2 5.24341V18.6074C2 18.9449 1.954 18.9179 2.25 18.7504L14.085 12.0434C14.159 12.0014 14.215 11.9614 14.2545 11.9254C14.2025 11.8803 14.1459 11.8409 14.0855 11.8079H14.085ZM1 5.24341C1 4.13841 1.781 3.68591 2.7425 4.23091L14.5785 10.9379C15.541 11.4834 15.5405 12.3679 14.5785 12.9129L2.7425 19.6209C1.78 20.1659 1 19.7109 1 18.6074V5.24341ZM9.4915 6.01041C9.49124 6.07607 9.47804 6.14104 9.45267 6.2016C9.4273 6.26216 9.39025 6.31714 9.34364 6.36338C9.29702 6.40962 9.24176 6.44623 9.18099 6.47112C9.12023 6.496 9.05516 6.50867 8.9895 6.50841C8.92384 6.50815 8.85887 6.49496 8.79831 6.46959C8.73775 6.44422 8.68278 6.40717 8.63653 6.36055C8.59029 6.31394 8.55368 6.25867 8.52879 6.19791C8.50391 6.13714 8.49124 6.07207 8.4915 6.00641L8.4925 5.79441C8.498 4.30841 9.693 3.61591 10.9865 4.34941L21.992 10.5849C23.2915 11.3209 23.2915 12.6909 21.992 13.4269L10.987 19.6634C9.6925 20.3964 8.4985 19.7004 8.495 18.2129V18.0094C8.49484 17.9438 8.50761 17.8787 8.53258 17.818C8.55756 17.7572 8.59425 17.702 8.64056 17.6555C8.68688 17.6089 8.7419 17.572 8.8025 17.5467C8.8631 17.5214 8.92809 17.5083 8.99375 17.5082C9.05941 17.508 9.12446 17.5208 9.18519 17.5457C9.24591 17.5707 9.30112 17.6074 9.34767 17.6537C9.39421 17.7 9.43118 17.7551 9.45646 17.8157C9.48174 17.8763 9.49484 17.9413 9.495 18.0069V18.2104C9.497 18.9339 9.866 19.1489 10.4935 18.7934L21.499 12.5569C22.1225 12.2039 22.1225 11.8079 21.499 11.4549L10.494 5.21841C9.865 4.86241 9.495 5.07641 9.4925 5.79791L9.4915 6.00991V6.01041Z" fill="black"/>
</svg>
