<svg width="24" height="24" viewBox="0 0 24 24" fill="none" xmlns="http://www.w3.org/2000/svg">
<g clip-path="url(#clip0_892_77)">
<path d="M12 0C5.4 0 0 5.4 0 12C0 18.6 5.4 24 12 24C18.6 24 24 18.6 24 12C24 5.4 18.6 0 12 0ZM12 23C5.95 23 1 18.05 1 12C1 5.95 5.95 1 12 1C18.05 1 23 5.95 23 12C23 18.05 18.05 23 12 23Z" fill="black"/>
<path d="M15.75 10.35L11.75 7.70004C10.4 6.80004 9.25 7.40004 9.25 9.05004V15.05C9.25 16.7 10.35 17.3 11.75 16.4L15.75 13.75C17.1 12.75 17.1 11.25 15.75 10.35V10.35Z" fill="black"/>
</g>
<defs>
<clipPath id="clip0_892_77">
<rect width="24" height="24" fill="white"/>
</clipPath>
</defs>
</svg>
