<svg width="30" height="40" viewBox="0 0 30 40" fill="none" xmlns="http://www.w3.org/2000/svg">
<path fill-rule="evenodd" clip-rule="evenodd" d="M30 0H0V40L15 30L30 40V0Z" fill="#A89161"/>
<path d="M11.0615 25.8662C10.6236 25.8662 10.1985 25.6582 9.92429 25.3097C9.67575 24.9938 9.5848 24.5996 9.67474 24.2281C9.73702 23.9711 10.2785 21.7872 10.5348 20.7537C9.73974 20.0696 8.088 18.6484 8.01908 18.5885C7.38012 18.0343 7.31159 17.4732 7.36679 17.1003C7.45817 16.4833 7.89441 16.0291 8.50527 15.9149L8.54596 15.9073L12.2148 15.5682L13.5544 12.4768C13.6577 12.2012 13.8033 11.9725 13.9875 11.7965C14.2632 11.533 14.6139 11.3938 15.0016 11.3938L15.0132 11.3938C15.4114 11.3968 15.7859 11.5676 16.0679 11.8749C16.2497 12.073 16.3539 12.2831 16.404 12.384L16.4168 12.41L17.7268 15.5461L21.4189 15.8983L21.473 15.9104C21.7054 15.9622 22.0036 16.05 22.2497 16.2717C22.4353 16.4389 22.6566 16.7428 22.6566 17.2411C22.6566 17.7882 22.3503 18.1299 22.1266 18.3794C22.0969 18.4125 22.0656 18.4474 22.033 18.4849L22.0132 18.5076L21.992 18.5289C21.9748 18.5462 21.974 18.547 19.5422 20.7365C19.792 21.9244 20.2499 24.1142 20.2878 24.3856C20.3415 24.7688 20.2418 25.1291 20.0068 25.3993C19.8287 25.6042 19.494 25.8484 18.9112 25.8484C18.7605 25.8484 18.564 25.8224 18.1501 25.6342L18.1102 25.616L15.0092 23.82C14.0515 24.3726 11.9677 25.5725 11.6692 25.7226C11.479 25.818 11.2748 25.8662 11.0615 25.8662ZM9.60816 17.6015C10.2325 18.139 11.4065 19.1491 12.1152 19.7589L12.5317 20.1171L12.3994 20.6502C12.3929 20.6763 11.9378 22.5109 11.6452 23.6928C12.4511 23.2343 13.6965 22.5175 14.5633 22.0165L15.0103 21.758L18.3319 23.6819C18.1521 22.8039 17.8822 21.5136 17.6897 20.6016L17.5835 20.0983L17.9658 19.7541C17.987 19.7351 19.6031 18.28 20.3682 17.5911L16.4922 17.2213L14.9959 13.6391L13.4321 17.2481L9.60816 17.6015Z" fill="white"/>
</svg>
