<svg width="20" height="20" viewBox="0 0 20 20" fill="none" xmlns="http://www.w3.org/2000/svg">
<path d="M14.9968 7.99183C16.9405 8.67725 18.3337 10.5302 18.3337 12.7085C18.3337 13.5427 18.1287 14.3487 17.7426 15.0687C17.7076 15.1339 17.6451 15.2431 17.5532 15.4L17.8387 16.446C17.9657 16.9127 17.5378 17.3408 17.0712 17.2135L16.0235 16.9277L15.9018 16.9993C15.1261 17.4646 14.2382 17.7098 13.3337 17.7085C11.8103 17.7085 10.4462 17.0272 9.52887 15.9529C9.16311 16.0122 8.79316 16.042 8.42262 16.0418C7.18554 16.0418 5.99554 15.7127 4.95637 15.0985C4.92054 15.0772 4.83116 15.0256 4.69012 14.9443L3.117 15.3672C2.64991 15.4929 2.22325 15.0631 2.35241 14.597L2.77804 13.0589C2.67158 12.8828 2.56802 12.7049 2.46741 12.5254C1.94097 11.5589 1.66575 10.4757 1.667 9.37516C1.667 5.6912 4.69366 2.7085 8.42262 2.7085C11.546 2.7085 14.2426 4.81808 14.9816 7.77287C15.0001 7.84641 15.0045 7.92037 14.9968 7.99162V7.99183ZM13.6666 7.71933C12.9472 5.5087 10.8437 3.9585 8.42262 3.9585C5.37991 3.9585 2.917 6.38558 2.917 9.37516C2.917 10.2789 3.14158 11.1493 3.56533 11.9279C3.62158 12.0312 3.76408 12.2737 3.98762 12.6456C4.03128 12.7182 4.05971 12.799 4.07117 12.883C4.08263 12.967 4.07689 13.0524 4.05429 13.1341L3.84887 13.8762L4.61512 13.6702C4.77482 13.6272 4.94502 13.6493 5.08845 13.7316C5.3672 13.8916 5.53325 13.9875 5.59241 14.0225C6.44966 14.5283 7.42726 14.7941 8.42262 14.7918C8.54283 14.7918 8.66262 14.7881 8.78179 14.7806C8.48548 14.13 8.33264 13.4233 8.33366 12.7085C8.33366 9.94704 10.5722 7.7085 13.3337 7.7085C13.4455 7.7085 13.5566 7.71225 13.6666 7.71933ZM16.278 15.4743C16.256 15.3936 16.2504 15.3092 16.2616 15.2263C16.2728 15.1433 16.3006 15.0634 16.3432 14.9914C16.4451 14.8218 16.5443 14.6506 16.641 14.4779C16.9327 13.9338 17.0848 13.3258 17.0837 12.7085C17.0837 10.6375 15.4047 8.9585 13.3337 8.9585C11.2626 8.9585 9.58366 10.6375 9.58366 12.7085C9.58366 14.7795 11.2626 16.4585 13.3337 16.4585C14.0118 16.4597 14.6774 16.2761 15.2589 15.9272C15.302 15.9014 15.4207 15.832 15.6205 15.7156C15.6922 15.6739 15.7715 15.6468 15.8537 15.6361C15.9359 15.6253 16.0195 15.631 16.0995 15.6529L16.3449 15.7197L16.278 15.4743ZM6.45866 8.3335C6.23765 8.3335 6.02569 8.2457 5.86941 8.08942C5.71313 7.93314 5.62533 7.72118 5.62533 7.50016C5.62533 7.27915 5.71313 7.06719 5.86941 6.91091C6.02569 6.75463 6.23765 6.66683 6.45866 6.66683C6.67968 6.66683 6.89164 6.75463 7.04792 6.91091C7.2042 7.06719 7.292 7.27915 7.292 7.50016C7.292 7.72118 7.2042 7.93314 7.04792 8.08942C6.89164 8.2457 6.67968 8.3335 6.45866 8.3335ZM10.2087 8.3335C9.98765 8.3335 9.77569 8.2457 9.61941 8.08942C9.46313 7.93314 9.37533 7.72118 9.37533 7.50016C9.37533 7.27915 9.46313 7.06719 9.61941 6.91091C9.77569 6.75463 9.98765 6.66683 10.2087 6.66683C10.4297 6.66683 10.6416 6.75463 10.7979 6.91091C10.9542 7.06719 11.042 7.27915 11.042 7.50016C11.042 7.72118 10.9542 7.93314 10.7979 8.08942C10.6416 8.2457 10.4297 8.3335 10.2087 8.3335ZM11.8753 12.2918C11.7096 12.2918 11.5506 12.226 11.4334 12.1088C11.3162 11.9916 11.2503 11.8326 11.2503 11.6668C11.2503 11.5011 11.3162 11.3421 11.4334 11.2249C11.5506 11.1077 11.7096 11.0418 11.8753 11.0418C12.0411 11.0418 12.2001 11.1077 12.3173 11.2249C12.4345 11.3421 12.5003 11.5011 12.5003 11.6668C12.5003 11.8326 12.4345 11.9916 12.3173 12.1088C12.2001 12.226 12.0411 12.2918 11.8753 12.2918ZM14.792 12.2918C14.6262 12.2918 14.4673 12.226 14.3501 12.1088C14.2328 11.9916 14.167 11.8326 14.167 11.6668C14.167 11.5011 14.2328 11.3421 14.3501 11.2249C14.4673 11.1077 14.6262 11.0418 14.792 11.0418C14.9578 11.0418 15.1167 11.1077 15.2339 11.2249C15.3511 11.3421 15.417 11.5011 15.417 11.6668C15.417 11.8326 15.3511 11.9916 15.2339 12.1088C15.1167 12.226 14.9578 12.2918 14.792 12.2918Z" fill="black"/>
</svg>
