<?xml version="1.0" encoding="utf-8"?>
<!-- Generator: Adobe Illustrator 22.1.0, SVG Export Plug-In . SVG Version: 6.00 Build 0)  -->
<svg version="1.1" id="图层_1" xmlns="http://www.w3.org/2000/svg" xmlns:xlink="http://www.w3.org/1999/xlink" x="0px" y="0px"
	 viewBox="0 0 120 120" style="enable-background:new 0 0 120 120;" xml:space="preserve">
<style type="text/css">
	.st0{fill:#FFFFFF;}
</style>
<path class="st0" d="M60,95c2.8,0,5,2.2,5,5c0,2.8-2.2,5-5,5H40c-13.8,0-25-11.2-25-25V40c0-13.8,11.2-25,25-25h40
	c13.8,0,25,11.2,25,25v40c0,13.8-11.2,25-25,25c-2.8,0-5-2.2-5-5c0-2.8,2.2-5,5-5c8.3,0,15-6.7,15-15V40c0-8.3-6.7-15-15-15H40
	c-8.3,0-15,6.7-15,15v40c0,8.3,6.7,15,15,15H60z M60,82.5c-12.4,0-22.5-10.1-22.5-22.5S47.6,37.5,60,37.5S82.5,47.6,82.5,60
	S72.4,82.5,60,82.5z M60,72.5c6.9,0,12.5-5.6,12.5-12.5c0-6.9-5.6-12.5-12.5-12.5c0,0,0,0,0,0c-6.9,0-12.5,5.6-12.5,12.5
	C47.5,66.9,53.1,72.5,60,72.5z M82.5,42.5c-2.8,0-5-2.2-5-5c0-2.8,2.2-5,5-5s5,2.2,5,5C87.5,40.3,85.3,42.5,82.5,42.5z"/>
</svg>
