<?xml version="1.0" encoding="utf-8"?>
<!-- Generator: Adobe Illustrator 22.1.0, SVG Export Plug-In . SVG Version: 6.00 Build 0)  -->
<svg version="1.1" id="图层_1" xmlns="http://www.w3.org/2000/svg" xmlns:xlink="http://www.w3.org/1999/xlink" x="0px" y="0px"
	 viewBox="0 0 120 120" style="enable-background:new 0 0 120 120;" xml:space="preserve">
<style type="text/css">
	.st0{fill:#FFFFFF;}
</style>
<path class="st0" d="M100,39.2c-4.3-1.5-7.6-4.9-9.1-9.1H25c-2.8,0-5-2.2-5-5s2.2-5,5-5h65.8c2.8-7.8,11.3-11.9,19.1-9.1
	s11.9,11.3,9.1,19.2c-1.5,4.3-4.9,7.6-9.1,9.1V95c0,2.8-2.2,5-5,5c0,0,0,0,0,0H15c-2.8,0-5-2.2-5-5l0,0V40c0-2.8,2.2-5,5-5
	c0.9,0,1.9,0.3,2.7,0.8l37.3,23.3l27.3-18.2c2.3-1.5,5.4-0.9,6.9,1.4c1.5,2.3,0.9,5.4-1.4,6.9l0,0l-30,20c-1.6,1.1-3.8,1.1-5.4,0.1
	L20,49v41h80C100,90,100,39.2,100,39.2z M105,30c2.8,0,5-2.2,5-5s-2.2-5-5-5l0,0c-2.8,0-5,2.2-5,5S102.2,30,105,30z"/>
</svg>
