<?xml version="1.0" encoding="utf-8"?>
<!-- Generator: Adobe Illustrator 22.1.0, SVG Export Plug-In . SVG Version: 6.00 Build 0)  -->
<svg version="1.1" id="图层_1" xmlns="http://www.w3.org/2000/svg" xmlns:xlink="http://www.w3.org/1999/xlink" x="0px" y="0px"
	 viewBox="0 0 120 120" style="enable-background:new 0 0 120 120;" xml:space="preserve">
<style type="text/css">
	.st0{fill:#FFFFFF;}
</style>
<path class="st0" d="M100.2,21.9c0.6-0.2,1.1-0.5,1.6-0.9c2.1-1.8,5.2-1.6,7,0.5c0,0,0,0,0,0c1.8,2.1,1.6,5.3-0.5,7.1
	c-1.4,1.2-3.1,2.2-4.8,2.8c-3,1-6,1.1-8.8,0.7c-0.5-0.1-1-0.2-1.4-0.3c-1-0.3-1.9-0.9-2.6-1.7c-4.1-5.1-9-6.4-15.8-3.8
	c-6.4,2.4-9,7.7-7.8,17.5c0.4,3-2,5.6-5,5.6c-16.1-0.1-30.8-7.2-44-21.1c-1.9-2-1.8-5.2,0.2-7.1c2-1.9,5.1-1.8,7.1,0.2c0,0,0,0,0,0
	C35.1,31.8,45.5,37.6,56.7,39c0.2-10.9,5-18.6,14.6-22.1c10.1-3.7,19-1.9,25.8,5.4C98.1,22.4,99.2,22.3,100.2,21.9z M42.2,95
	c18.5,0,34.9-7.9,45.7-25.9c3.9-6.6,6.2-14.2,6.6-23c0.1-2.8,2.4-4.9,5.2-4.8c2.8,0.1,4.9,2.4,4.8,5.2c0,0,0,0.1,0,0.1
	c-0.6,10.4-3.2,19.6-8,27.6C83.8,95.5,64,105,42.2,105c-11.5,0-21.6-3.2-30.2-9.5c-4.1-3-1.6-9.5,3.4-9c7.3,0.7,15.8-1.8,25.3-7.6
	c2.4-1.4,5.4-0.7,6.9,1.7c0,0,0,0,0,0c1.4,2.4,0.7,5.4-1.7,6.9c-4.6,2.8-9.1,5-13.5,6.5C35.7,94.7,39,95,42.2,95z M16,43.5
	c-1.1-2.5,0.1-5.5,2.7-6.6c2.5-1.1,5.5,0.1,6.6,2.7c1.1,2.6,2.8,4.5,5.4,5.8c2.5,1.3,3.4,4.3,2.2,6.7c-1.2,2.5-4.3,3.4-6.7,2.2
	c0,0,0,0,0,0C21.5,52.1,17.9,48.2,16,43.5L16,43.5z M20.6,63.5c-1.4-2.4-0.6-5.5,1.8-6.9c2.4-1.4,5.4-0.6,6.8,1.7c0,0,0,0,0,0
	c2,3.3,3.9,5,5.9,5.5c2.7,0.7,4.3,3.4,3.6,6.1c-0.7,2.6-3.2,4.2-5.8,3.6C27.9,72.5,23.8,69,20.6,63.5z"/>
</svg>
